%TF.GenerationSoftware,KiCad,Pcbnew,(6.0.0)*%
%TF.CreationDate,2022-07-07T13:52:49+12:00*%
%TF.ProjectId,SERVO_POWER_INJECTOR,53455256-4f5f-4504-9f57-45525f494e4a,0A*%
%TF.SameCoordinates,Original*%
%TF.FileFunction,Legend,Top*%
%TF.FilePolarity,Positive*%
%FSLAX46Y46*%
G04 Gerber Fmt 4.6, Leading zero omitted, Abs format (unit mm)*
G04 Created by KiCad (PCBNEW (6.0.0)) date 2022-07-07 13:52:49*
%MOMM*%
%LPD*%
G01*
G04 APERTURE LIST*
%ADD10C,0.150000*%
%ADD11C,0.250000*%
%ADD12C,0.120000*%
G04 APERTURE END LIST*
D10*
%TO.C,1K1*%
X214477500Y-97512742D02*
X214477500Y-97987258D01*
X215522500Y-97512742D02*
X215522500Y-97987258D01*
%TO.C,3K2*%
X210362742Y-94977500D02*
X210837258Y-94977500D01*
X210362742Y-96022500D02*
X210837258Y-96022500D01*
%TO.C,10uF3*%
X210740580Y-105010000D02*
X210459420Y-105010000D01*
X210740580Y-103990000D02*
X210459420Y-103990000D01*
%TO.C,10uF1*%
X206459420Y-103990000D02*
X206740580Y-103990000D01*
X206459420Y-105010000D02*
X206740580Y-105010000D01*
%TO.C,100nF2*%
X215510000Y-102109420D02*
X215510000Y-102390580D01*
X214490000Y-102109420D02*
X214490000Y-102390580D01*
D11*
%TO.C,U1*%
X204800000Y-96700000D02*
X202500000Y-96700000D01*
D10*
%TO.C,3K1*%
X203837258Y-96022500D02*
X203362742Y-96022500D01*
X203837258Y-94977500D02*
X203362742Y-94977500D01*
D12*
%TO.C,DS1*%
X213800000Y-95900000D02*
X213400000Y-95900000D01*
X213800000Y-95100000D02*
X213400000Y-95100000D01*
X215085000Y-95900000D02*
X215085000Y-95100000D01*
D10*
%TO.C,10uF2*%
X213459420Y-103990000D02*
X213740580Y-103990000D01*
X213459420Y-105010000D02*
X213740580Y-105010000D01*
%TO.C,100nF1*%
X203740580Y-105010000D02*
X203459420Y-105010000D01*
X203740580Y-103990000D02*
X203459420Y-103990000D01*
%TO.C,1K2*%
X206837258Y-94977500D02*
X206362742Y-94977500D01*
X206837258Y-96022500D02*
X206362742Y-96022500D01*
%TD*%
M02*
