M48
; DRILL file {KiCad (6.0.0)} date Thu Jul  7 13:52:56 2022
; FORMAT={-:-/ absolute / metric / decimal}
; #@! TF.CreationDate,2022-07-07T13:52:56+12:00
; #@! TF.GenerationSoftware,Kicad,Pcbnew,(6.0.0)
; #@! TF.FileFunction,Plated,1,4,PTH
FMAT,2
METRIC
; #@! TA.AperFunction,Plated,PTH,ViaDrill
T1C0.250
; #@! TA.AperFunction,Plated,PTH,ComponentDrill
T2C1.000
%
G90
G05
T1
X195.377Y-105.004
X195.402Y-95.021
X195.402Y-97.46
X195.402Y-100.0
X195.402Y-102.514
X201.041Y-100.025
X201.066Y-95.021
X201.066Y-97.46
X201.955Y-98.857
X201.955Y-101.092
X202.0Y-95.5
X202.0Y-104.6
X205.334Y-103.48
X205.384Y-96.952
X206.426Y-96.926
X206.451Y-103.48
X208.6Y-95.1
X208.6Y-95.9
X208.6Y-104.1
X208.6Y-104.9
X215.2Y-95.5
X215.2Y-104.5
X215.9Y-96.8
X215.9Y-103.05
X216.637Y-103.81
X216.662Y-96.164
X216.662Y-101.321
X216.687Y-98.679
X218.059Y-95.504
X218.059Y-104.496
X220.472Y-95.529
X220.497Y-104.47
X222.326Y-104.927
X222.352Y-95.021
X222.352Y-101.27
X222.352Y-103.81
X222.377Y-96.19
X222.377Y-98.704
T2
X200.0Y-96.19
X200.0Y-98.73
X200.0Y-101.27
X200.0Y-103.81
X217.78Y-97.45
X217.78Y-99.99
X217.78Y-102.53
T0
M30
