%TF.GenerationSoftware,KiCad,Pcbnew,(6.0.0)*%
%TF.CreationDate,2022-07-07T13:52:49+12:00*%
%TF.ProjectId,SERVO_POWER_INJECTOR,53455256-4f5f-4504-9f57-45525f494e4a,0A*%
%TF.SameCoordinates,Original*%
%TF.FileFunction,AssemblyDrawing,Top*%
%FSLAX46Y46*%
G04 Gerber Fmt 4.6, Leading zero omitted, Abs format (unit mm)*
G04 Created by KiCad (PCBNEW (6.0.0)) date 2022-07-07 13:52:49*
%MOMM*%
%LPD*%
G01*
G04 APERTURE LIST*
%ADD10C,0.060000*%
%ADD11C,0.150000*%
%ADD12C,0.075000*%
%ADD13C,0.100000*%
G04 APERTURE END LIST*
D10*
%TO.C,1K1*%
X215180952Y-98026190D02*
X215180952Y-98254761D01*
X215180952Y-98140476D02*
X214780952Y-98140476D01*
X214838095Y-98178571D01*
X214876190Y-98216666D01*
X214895238Y-98254761D01*
X215180952Y-97854761D02*
X214780952Y-97854761D01*
X215180952Y-97626190D02*
X214952380Y-97797619D01*
X214780952Y-97626190D02*
X215009523Y-97854761D01*
X215180952Y-97245238D02*
X215180952Y-97473809D01*
X215180952Y-97359523D02*
X214780952Y-97359523D01*
X214838095Y-97397619D01*
X214876190Y-97435714D01*
X214895238Y-97473809D01*
%TO.C,3K2*%
X210076190Y-95280952D02*
X210323809Y-95280952D01*
X210190476Y-95433333D01*
X210247619Y-95433333D01*
X210285714Y-95452380D01*
X210304761Y-95471428D01*
X210323809Y-95509523D01*
X210323809Y-95604761D01*
X210304761Y-95642857D01*
X210285714Y-95661904D01*
X210247619Y-95680952D01*
X210133333Y-95680952D01*
X210095238Y-95661904D01*
X210076190Y-95642857D01*
X210495238Y-95680952D02*
X210495238Y-95280952D01*
X210723809Y-95680952D02*
X210552380Y-95452380D01*
X210723809Y-95280952D02*
X210495238Y-95509523D01*
X210876190Y-95319047D02*
X210895238Y-95300000D01*
X210933333Y-95280952D01*
X211028571Y-95280952D01*
X211066666Y-95300000D01*
X211085714Y-95319047D01*
X211104761Y-95357142D01*
X211104761Y-95395238D01*
X211085714Y-95452380D01*
X210857142Y-95680952D01*
X211104761Y-95680952D01*
%TO.C,10uF3*%
X209980952Y-104680952D02*
X209752380Y-104680952D01*
X209866666Y-104680952D02*
X209866666Y-104280952D01*
X209828571Y-104338095D01*
X209790476Y-104376190D01*
X209752380Y-104395238D01*
X210228571Y-104280952D02*
X210266666Y-104280952D01*
X210304761Y-104300000D01*
X210323809Y-104319047D01*
X210342857Y-104357142D01*
X210361904Y-104433333D01*
X210361904Y-104528571D01*
X210342857Y-104604761D01*
X210323809Y-104642857D01*
X210304761Y-104661904D01*
X210266666Y-104680952D01*
X210228571Y-104680952D01*
X210190476Y-104661904D01*
X210171428Y-104642857D01*
X210152380Y-104604761D01*
X210133333Y-104528571D01*
X210133333Y-104433333D01*
X210152380Y-104357142D01*
X210171428Y-104319047D01*
X210190476Y-104300000D01*
X210228571Y-104280952D01*
X210704761Y-104414285D02*
X210704761Y-104680952D01*
X210533333Y-104414285D02*
X210533333Y-104623809D01*
X210552380Y-104661904D01*
X210590476Y-104680952D01*
X210647619Y-104680952D01*
X210685714Y-104661904D01*
X210704761Y-104642857D01*
X211028571Y-104471428D02*
X210895238Y-104471428D01*
X210895238Y-104680952D02*
X210895238Y-104280952D01*
X211085714Y-104280952D01*
X211200000Y-104280952D02*
X211447619Y-104280952D01*
X211314285Y-104433333D01*
X211371428Y-104433333D01*
X211409523Y-104452380D01*
X211428571Y-104471428D01*
X211447619Y-104509523D01*
X211447619Y-104604761D01*
X211428571Y-104642857D01*
X211409523Y-104661904D01*
X211371428Y-104680952D01*
X211257142Y-104680952D01*
X211219047Y-104661904D01*
X211200000Y-104642857D01*
%TO.C,10uF1*%
X205980952Y-104680952D02*
X205752380Y-104680952D01*
X205866666Y-104680952D02*
X205866666Y-104280952D01*
X205828571Y-104338095D01*
X205790476Y-104376190D01*
X205752380Y-104395238D01*
X206228571Y-104280952D02*
X206266666Y-104280952D01*
X206304761Y-104300000D01*
X206323809Y-104319047D01*
X206342857Y-104357142D01*
X206361904Y-104433333D01*
X206361904Y-104528571D01*
X206342857Y-104604761D01*
X206323809Y-104642857D01*
X206304761Y-104661904D01*
X206266666Y-104680952D01*
X206228571Y-104680952D01*
X206190476Y-104661904D01*
X206171428Y-104642857D01*
X206152380Y-104604761D01*
X206133333Y-104528571D01*
X206133333Y-104433333D01*
X206152380Y-104357142D01*
X206171428Y-104319047D01*
X206190476Y-104300000D01*
X206228571Y-104280952D01*
X206704761Y-104414285D02*
X206704761Y-104680952D01*
X206533333Y-104414285D02*
X206533333Y-104623809D01*
X206552380Y-104661904D01*
X206590476Y-104680952D01*
X206647619Y-104680952D01*
X206685714Y-104661904D01*
X206704761Y-104642857D01*
X207028571Y-104471428D02*
X206895238Y-104471428D01*
X206895238Y-104680952D02*
X206895238Y-104280952D01*
X207085714Y-104280952D01*
X207447619Y-104680952D02*
X207219047Y-104680952D01*
X207333333Y-104680952D02*
X207333333Y-104280952D01*
X207295238Y-104338095D01*
X207257142Y-104376190D01*
X207219047Y-104395238D01*
%TO.C,100nF2*%
X215180952Y-103059523D02*
X215180952Y-103288095D01*
X215180952Y-103173809D02*
X214780952Y-103173809D01*
X214838095Y-103211904D01*
X214876190Y-103250000D01*
X214895238Y-103288095D01*
X214780952Y-102811904D02*
X214780952Y-102773809D01*
X214800000Y-102735714D01*
X214819047Y-102716666D01*
X214857142Y-102697619D01*
X214933333Y-102678571D01*
X215028571Y-102678571D01*
X215104761Y-102697619D01*
X215142857Y-102716666D01*
X215161904Y-102735714D01*
X215180952Y-102773809D01*
X215180952Y-102811904D01*
X215161904Y-102850000D01*
X215142857Y-102869047D01*
X215104761Y-102888095D01*
X215028571Y-102907142D01*
X214933333Y-102907142D01*
X214857142Y-102888095D01*
X214819047Y-102869047D01*
X214800000Y-102850000D01*
X214780952Y-102811904D01*
X214780952Y-102430952D02*
X214780952Y-102392857D01*
X214800000Y-102354761D01*
X214819047Y-102335714D01*
X214857142Y-102316666D01*
X214933333Y-102297619D01*
X215028571Y-102297619D01*
X215104761Y-102316666D01*
X215142857Y-102335714D01*
X215161904Y-102354761D01*
X215180952Y-102392857D01*
X215180952Y-102430952D01*
X215161904Y-102469047D01*
X215142857Y-102488095D01*
X215104761Y-102507142D01*
X215028571Y-102526190D01*
X214933333Y-102526190D01*
X214857142Y-102507142D01*
X214819047Y-102488095D01*
X214800000Y-102469047D01*
X214780952Y-102430952D01*
X214914285Y-102126190D02*
X215180952Y-102126190D01*
X214952380Y-102126190D02*
X214933333Y-102107142D01*
X214914285Y-102069047D01*
X214914285Y-102011904D01*
X214933333Y-101973809D01*
X214971428Y-101954761D01*
X215180952Y-101954761D01*
X214971428Y-101630952D02*
X214971428Y-101764285D01*
X215180952Y-101764285D02*
X214780952Y-101764285D01*
X214780952Y-101573809D01*
X214819047Y-101440476D02*
X214800000Y-101421428D01*
X214780952Y-101383333D01*
X214780952Y-101288095D01*
X214800000Y-101250000D01*
X214819047Y-101230952D01*
X214857142Y-101211904D01*
X214895238Y-101211904D01*
X214952380Y-101230952D01*
X215180952Y-101459523D01*
X215180952Y-101211904D01*
D11*
%TO.C,J4*%
X217232380Y-100323333D02*
X217946666Y-100323333D01*
X218089523Y-100370952D01*
X218184761Y-100466190D01*
X218232380Y-100609047D01*
X218232380Y-100704285D01*
X217565714Y-99418571D02*
X218232380Y-99418571D01*
X217184761Y-99656666D02*
X217899047Y-99894761D01*
X217899047Y-99275714D01*
D12*
%TO.C,U1*%
X210226190Y-100380952D02*
X210630952Y-100380952D01*
X210678571Y-100357142D01*
X210702380Y-100333333D01*
X210726190Y-100285714D01*
X210726190Y-100190476D01*
X210702380Y-100142857D01*
X210678571Y-100119047D01*
X210630952Y-100095238D01*
X210226190Y-100095238D01*
X210726190Y-99595238D02*
X210726190Y-99880952D01*
X210726190Y-99738095D02*
X210226190Y-99738095D01*
X210297619Y-99785714D01*
X210345238Y-99833333D01*
X210369047Y-99880952D01*
D10*
%TO.C,3K1*%
X203076190Y-95280952D02*
X203323809Y-95280952D01*
X203190476Y-95433333D01*
X203247619Y-95433333D01*
X203285714Y-95452380D01*
X203304761Y-95471428D01*
X203323809Y-95509523D01*
X203323809Y-95604761D01*
X203304761Y-95642857D01*
X203285714Y-95661904D01*
X203247619Y-95680952D01*
X203133333Y-95680952D01*
X203095238Y-95661904D01*
X203076190Y-95642857D01*
X203495238Y-95680952D02*
X203495238Y-95280952D01*
X203723809Y-95680952D02*
X203552380Y-95452380D01*
X203723809Y-95280952D02*
X203495238Y-95509523D01*
X204104761Y-95680952D02*
X203876190Y-95680952D01*
X203990476Y-95680952D02*
X203990476Y-95280952D01*
X203952380Y-95338095D01*
X203914285Y-95376190D01*
X203876190Y-95395238D01*
D11*
%TO.C,J1*%
X199452380Y-100333333D02*
X200166666Y-100333333D01*
X200309523Y-100380952D01*
X200404761Y-100476190D01*
X200452380Y-100619047D01*
X200452380Y-100714285D01*
X200452380Y-99333333D02*
X200452380Y-99904761D01*
X200452380Y-99619047D02*
X199452380Y-99619047D01*
X199595238Y-99714285D01*
X199690476Y-99809523D01*
X199738095Y-99904761D01*
D10*
%TO.C,DS1*%
X213114285Y-95680952D02*
X213114285Y-95280952D01*
X213209523Y-95280952D01*
X213266666Y-95300000D01*
X213304761Y-95338095D01*
X213323809Y-95376190D01*
X213342857Y-95452380D01*
X213342857Y-95509523D01*
X213323809Y-95585714D01*
X213304761Y-95623809D01*
X213266666Y-95661904D01*
X213209523Y-95680952D01*
X213114285Y-95680952D01*
X213495238Y-95661904D02*
X213552380Y-95680952D01*
X213647619Y-95680952D01*
X213685714Y-95661904D01*
X213704761Y-95642857D01*
X213723809Y-95604761D01*
X213723809Y-95566666D01*
X213704761Y-95528571D01*
X213685714Y-95509523D01*
X213647619Y-95490476D01*
X213571428Y-95471428D01*
X213533333Y-95452380D01*
X213514285Y-95433333D01*
X213495238Y-95395238D01*
X213495238Y-95357142D01*
X213514285Y-95319047D01*
X213533333Y-95300000D01*
X213571428Y-95280952D01*
X213666666Y-95280952D01*
X213723809Y-95300000D01*
X214104761Y-95680952D02*
X213876190Y-95680952D01*
X213990476Y-95680952D02*
X213990476Y-95280952D01*
X213952380Y-95338095D01*
X213914285Y-95376190D01*
X213876190Y-95395238D01*
%TO.C,10uF2*%
X212980952Y-104680952D02*
X212752380Y-104680952D01*
X212866666Y-104680952D02*
X212866666Y-104280952D01*
X212828571Y-104338095D01*
X212790476Y-104376190D01*
X212752380Y-104395238D01*
X213228571Y-104280952D02*
X213266666Y-104280952D01*
X213304761Y-104300000D01*
X213323809Y-104319047D01*
X213342857Y-104357142D01*
X213361904Y-104433333D01*
X213361904Y-104528571D01*
X213342857Y-104604761D01*
X213323809Y-104642857D01*
X213304761Y-104661904D01*
X213266666Y-104680952D01*
X213228571Y-104680952D01*
X213190476Y-104661904D01*
X213171428Y-104642857D01*
X213152380Y-104604761D01*
X213133333Y-104528571D01*
X213133333Y-104433333D01*
X213152380Y-104357142D01*
X213171428Y-104319047D01*
X213190476Y-104300000D01*
X213228571Y-104280952D01*
X213704761Y-104414285D02*
X213704761Y-104680952D01*
X213533333Y-104414285D02*
X213533333Y-104623809D01*
X213552380Y-104661904D01*
X213590476Y-104680952D01*
X213647619Y-104680952D01*
X213685714Y-104661904D01*
X213704761Y-104642857D01*
X214028571Y-104471428D02*
X213895238Y-104471428D01*
X213895238Y-104680952D02*
X213895238Y-104280952D01*
X214085714Y-104280952D01*
X214219047Y-104319047D02*
X214238095Y-104300000D01*
X214276190Y-104280952D01*
X214371428Y-104280952D01*
X214409523Y-104300000D01*
X214428571Y-104319047D01*
X214447619Y-104357142D01*
X214447619Y-104395238D01*
X214428571Y-104452380D01*
X214200000Y-104680952D01*
X214447619Y-104680952D01*
%TO.C,100nF1*%
X202790476Y-104680952D02*
X202561904Y-104680952D01*
X202676190Y-104680952D02*
X202676190Y-104280952D01*
X202638095Y-104338095D01*
X202600000Y-104376190D01*
X202561904Y-104395238D01*
X203038095Y-104280952D02*
X203076190Y-104280952D01*
X203114285Y-104300000D01*
X203133333Y-104319047D01*
X203152380Y-104357142D01*
X203171428Y-104433333D01*
X203171428Y-104528571D01*
X203152380Y-104604761D01*
X203133333Y-104642857D01*
X203114285Y-104661904D01*
X203076190Y-104680952D01*
X203038095Y-104680952D01*
X203000000Y-104661904D01*
X202980952Y-104642857D01*
X202961904Y-104604761D01*
X202942857Y-104528571D01*
X202942857Y-104433333D01*
X202961904Y-104357142D01*
X202980952Y-104319047D01*
X203000000Y-104300000D01*
X203038095Y-104280952D01*
X203419047Y-104280952D02*
X203457142Y-104280952D01*
X203495238Y-104300000D01*
X203514285Y-104319047D01*
X203533333Y-104357142D01*
X203552380Y-104433333D01*
X203552380Y-104528571D01*
X203533333Y-104604761D01*
X203514285Y-104642857D01*
X203495238Y-104661904D01*
X203457142Y-104680952D01*
X203419047Y-104680952D01*
X203380952Y-104661904D01*
X203361904Y-104642857D01*
X203342857Y-104604761D01*
X203323809Y-104528571D01*
X203323809Y-104433333D01*
X203342857Y-104357142D01*
X203361904Y-104319047D01*
X203380952Y-104300000D01*
X203419047Y-104280952D01*
X203723809Y-104414285D02*
X203723809Y-104680952D01*
X203723809Y-104452380D02*
X203742857Y-104433333D01*
X203780952Y-104414285D01*
X203838095Y-104414285D01*
X203876190Y-104433333D01*
X203895238Y-104471428D01*
X203895238Y-104680952D01*
X204219047Y-104471428D02*
X204085714Y-104471428D01*
X204085714Y-104680952D02*
X204085714Y-104280952D01*
X204276190Y-104280952D01*
X204638095Y-104680952D02*
X204409523Y-104680952D01*
X204523809Y-104680952D02*
X204523809Y-104280952D01*
X204485714Y-104338095D01*
X204447619Y-104376190D01*
X204409523Y-104395238D01*
%TO.C,1K2*%
X206323809Y-95680952D02*
X206095238Y-95680952D01*
X206209523Y-95680952D02*
X206209523Y-95280952D01*
X206171428Y-95338095D01*
X206133333Y-95376190D01*
X206095238Y-95395238D01*
X206495238Y-95680952D02*
X206495238Y-95280952D01*
X206723809Y-95680952D02*
X206552380Y-95452380D01*
X206723809Y-95280952D02*
X206495238Y-95509523D01*
X206876190Y-95319047D02*
X206895238Y-95300000D01*
X206933333Y-95280952D01*
X207028571Y-95280952D01*
X207066666Y-95300000D01*
X207085714Y-95319047D01*
X207104761Y-95357142D01*
X207104761Y-95395238D01*
X207085714Y-95452380D01*
X206857142Y-95680952D01*
X207104761Y-95680952D01*
D13*
%TO.C,1K1*%
X215412500Y-96950000D02*
X215412500Y-98550000D01*
X214587500Y-98550000D02*
X214587500Y-96950000D01*
X214587500Y-96950000D02*
X215412500Y-96950000D01*
X215412500Y-98550000D02*
X214587500Y-98550000D01*
%TO.C,3K2*%
X211400000Y-95087500D02*
X211400000Y-95912500D01*
X211400000Y-95912500D02*
X209800000Y-95912500D01*
X209800000Y-95912500D02*
X209800000Y-95087500D01*
X209800000Y-95087500D02*
X211400000Y-95087500D01*
%TO.C,10uF3*%
X211400000Y-104100000D02*
X211400000Y-104900000D01*
X211400000Y-104900000D02*
X209800000Y-104900000D01*
X209800000Y-104100000D02*
X211400000Y-104100000D01*
X209800000Y-104900000D02*
X209800000Y-104100000D01*
%TO.C,10uF1*%
X207400000Y-104900000D02*
X205800000Y-104900000D01*
X205800000Y-104900000D02*
X205800000Y-104100000D01*
X205800000Y-104100000D02*
X207400000Y-104100000D01*
X207400000Y-104100000D02*
X207400000Y-104900000D01*
%TO.C,100nF2*%
X214600000Y-103050000D02*
X214600000Y-101450000D01*
X215400000Y-101450000D02*
X215400000Y-103050000D01*
X214600000Y-101450000D02*
X215400000Y-101450000D01*
X215400000Y-103050000D02*
X214600000Y-103050000D01*
%TO.C,J4*%
X216510000Y-103800000D02*
X216510000Y-96180000D01*
X219050000Y-96180000D02*
X219050000Y-103800000D01*
X219050000Y-103800000D02*
X216510000Y-103800000D01*
X216510000Y-96180000D02*
X219050000Y-96180000D01*
%TO.C,U1*%
X210650000Y-101520000D02*
X209800000Y-101520000D01*
X209800000Y-101520000D02*
X209800000Y-98480000D01*
X211200000Y-100950000D02*
X210650000Y-101520000D01*
X211200000Y-98480000D02*
X209800000Y-98480000D01*
X211200000Y-100950000D02*
X211200000Y-98500000D01*
%TO.C,3K1*%
X204400000Y-95912500D02*
X202800000Y-95912500D01*
X204400000Y-95087500D02*
X204400000Y-95912500D01*
X202800000Y-95912500D02*
X202800000Y-95087500D01*
X202800000Y-95087500D02*
X204400000Y-95087500D01*
%TO.C,J1*%
X198730000Y-105080000D02*
X198730000Y-94920000D01*
X201270000Y-94920000D02*
X201270000Y-105080000D01*
X201270000Y-105080000D02*
X198730000Y-105080000D01*
X198730000Y-94920000D02*
X201270000Y-94920000D01*
%TO.C,DS1*%
X214100000Y-95900000D02*
X214400000Y-95600000D01*
X214400000Y-95100000D02*
X212800000Y-95100000D01*
X212800000Y-95900000D02*
X214100000Y-95900000D01*
X212800000Y-95100000D02*
X212800000Y-95900000D01*
X214400000Y-95600000D02*
X214400000Y-95100000D01*
%TO.C,10uF2*%
X212800000Y-104100000D02*
X214400000Y-104100000D01*
X212800000Y-104900000D02*
X212800000Y-104100000D01*
X214400000Y-104100000D02*
X214400000Y-104900000D01*
X214400000Y-104900000D02*
X212800000Y-104900000D01*
%TO.C,100nF1*%
X202800000Y-104900000D02*
X202800000Y-104100000D01*
X202800000Y-104100000D02*
X204400000Y-104100000D01*
X204400000Y-104100000D02*
X204400000Y-104900000D01*
X204400000Y-104900000D02*
X202800000Y-104900000D01*
%TO.C,1K2*%
X205800000Y-95912500D02*
X205800000Y-95087500D01*
X205800000Y-95087500D02*
X207400000Y-95087500D01*
X207400000Y-95912500D02*
X205800000Y-95912500D01*
X207400000Y-95087500D02*
X207400000Y-95912500D01*
%TD*%
M02*
