%TF.GenerationSoftware,KiCad,Pcbnew,(6.0.0)*%
%TF.CreationDate,2022-07-07T13:52:49+12:00*%
%TF.ProjectId,SERVO_POWER_INJECTOR,53455256-4f5f-4504-9f57-45525f494e4a,0A*%
%TF.SameCoordinates,Original*%
%TF.FileFunction,Legend,Bot*%
%TF.FilePolarity,Positive*%
%FSLAX46Y46*%
G04 Gerber Fmt 4.6, Leading zero omitted, Abs format (unit mm)*
G04 Created by KiCad (PCBNEW (6.0.0)) date 2022-07-07 13:52:49*
%MOMM*%
%LPD*%
G01*
G04 APERTURE LIST*
%ADD10C,0.200000*%
%ADD11C,0.150000*%
G04 APERTURE END LIST*
D10*
X201529942Y-100939638D02*
X201529942Y-101549161D01*
X201802961Y-103866942D02*
X201193438Y-103866942D01*
X201498200Y-104171704D02*
X201498200Y-103562180D01*
D11*
X202672942Y-103485838D02*
X202634847Y-103371552D01*
X202596752Y-103333457D01*
X202520561Y-103295361D01*
X202406276Y-103295361D01*
X202330085Y-103333457D01*
X202291990Y-103371552D01*
X202253895Y-103447742D01*
X202253895Y-103752504D01*
X203053895Y-103752504D01*
X203053895Y-103485838D01*
X203015800Y-103409647D01*
X202977704Y-103371552D01*
X202901514Y-103333457D01*
X202825323Y-103333457D01*
X202749133Y-103371552D01*
X202711038Y-103409647D01*
X202672942Y-103485838D01*
X202672942Y-103752504D01*
X202482466Y-102990600D02*
X202482466Y-102609647D01*
X202253895Y-103066790D02*
X203053895Y-102800123D01*
X202253895Y-102533457D01*
X203053895Y-102381076D02*
X203053895Y-101923933D01*
X202253895Y-102152504D02*
X203053895Y-102152504D01*
X203053895Y-101771552D02*
X203053895Y-101314409D01*
X202253895Y-101542980D02*
X203053895Y-101542980D01*
X201949000Y-99415523D02*
X201987095Y-99491714D01*
X201987095Y-99606000D01*
X201949000Y-99720285D01*
X201872809Y-99796476D01*
X201796619Y-99834571D01*
X201644238Y-99872666D01*
X201529952Y-99872666D01*
X201377571Y-99834571D01*
X201301380Y-99796476D01*
X201225190Y-99720285D01*
X201187095Y-99606000D01*
X201187095Y-99529809D01*
X201225190Y-99415523D01*
X201263285Y-99377428D01*
X201529952Y-99377428D01*
X201529952Y-99529809D01*
X201187095Y-99034571D02*
X201987095Y-99034571D01*
X201187095Y-98577428D01*
X201987095Y-98577428D01*
X201187095Y-98196476D02*
X201987095Y-98196476D01*
X201987095Y-98006000D01*
X201949000Y-97891714D01*
X201872809Y-97815523D01*
X201796619Y-97777428D01*
X201644238Y-97739333D01*
X201529952Y-97739333D01*
X201377571Y-97777428D01*
X201301380Y-97815523D01*
X201225190Y-97891714D01*
X201187095Y-98006000D01*
X201187095Y-98196476D01*
X201225190Y-97059647D02*
X201187095Y-96945361D01*
X201187095Y-96754885D01*
X201225190Y-96678695D01*
X201263285Y-96640600D01*
X201339476Y-96602504D01*
X201415666Y-96602504D01*
X201491857Y-96640600D01*
X201529952Y-96678695D01*
X201568047Y-96754885D01*
X201606142Y-96907266D01*
X201644238Y-96983457D01*
X201682333Y-97021552D01*
X201758523Y-97059647D01*
X201834714Y-97059647D01*
X201910904Y-97021552D01*
X201949000Y-96983457D01*
X201987095Y-96907266D01*
X201987095Y-96716790D01*
X201949000Y-96602504D01*
X201187095Y-96259647D02*
X201987095Y-96259647D01*
X201949000Y-95459647D02*
X201987095Y-95535838D01*
X201987095Y-95650123D01*
X201949000Y-95764409D01*
X201872809Y-95840600D01*
X201796619Y-95878695D01*
X201644238Y-95916790D01*
X201529952Y-95916790D01*
X201377571Y-95878695D01*
X201301380Y-95840600D01*
X201225190Y-95764409D01*
X201187095Y-95650123D01*
X201187095Y-95573933D01*
X201225190Y-95459647D01*
X201263285Y-95421552D01*
X201529952Y-95421552D01*
X201529952Y-95573933D01*
X216503200Y-103174723D02*
X216541295Y-103250914D01*
X216541295Y-103365200D01*
X216503200Y-103479485D01*
X216427009Y-103555676D01*
X216350819Y-103593771D01*
X216198438Y-103631866D01*
X216084152Y-103631866D01*
X215931771Y-103593771D01*
X215855580Y-103555676D01*
X215779390Y-103479485D01*
X215741295Y-103365200D01*
X215741295Y-103289009D01*
X215779390Y-103174723D01*
X215817485Y-103136628D01*
X216084152Y-103136628D01*
X216084152Y-103289009D01*
X215741295Y-102793771D02*
X216541295Y-102793771D01*
X215741295Y-102336628D01*
X216541295Y-102336628D01*
X215741295Y-101955676D02*
X216541295Y-101955676D01*
X216541295Y-101765200D01*
X216503200Y-101650914D01*
X216427009Y-101574723D01*
X216350819Y-101536628D01*
X216198438Y-101498533D01*
X216084152Y-101498533D01*
X215931771Y-101536628D01*
X215855580Y-101574723D01*
X215779390Y-101650914D01*
X215741295Y-101765200D01*
X215741295Y-101955676D01*
X215779390Y-98228047D02*
X215741295Y-98113761D01*
X215741295Y-97923285D01*
X215779390Y-97847095D01*
X215817485Y-97809000D01*
X215893676Y-97770904D01*
X215969866Y-97770904D01*
X216046057Y-97809000D01*
X216084152Y-97847095D01*
X216122247Y-97923285D01*
X216160342Y-98075666D01*
X216198438Y-98151857D01*
X216236533Y-98189952D01*
X216312723Y-98228047D01*
X216388914Y-98228047D01*
X216465104Y-98189952D01*
X216503200Y-98151857D01*
X216541295Y-98075666D01*
X216541295Y-97885190D01*
X216503200Y-97770904D01*
X215741295Y-97428047D02*
X216541295Y-97428047D01*
X216503200Y-96628047D02*
X216541295Y-96704238D01*
X216541295Y-96818523D01*
X216503200Y-96932809D01*
X216427009Y-97009000D01*
X216350819Y-97047095D01*
X216198438Y-97085190D01*
X216084152Y-97085190D01*
X215931771Y-97047095D01*
X215855580Y-97009000D01*
X215779390Y-96932809D01*
X215741295Y-96818523D01*
X215741295Y-96742333D01*
X215779390Y-96628047D01*
X215817485Y-96589952D01*
X216084152Y-96589952D01*
X216084152Y-96742333D01*
X216515895Y-100177580D02*
X216515895Y-100558533D01*
X216134942Y-100596628D01*
X216173038Y-100558533D01*
X216211133Y-100482342D01*
X216211133Y-100291866D01*
X216173038Y-100215676D01*
X216134942Y-100177580D01*
X216058752Y-100139485D01*
X215868276Y-100139485D01*
X215792085Y-100177580D01*
X215753990Y-100215676D01*
X215715895Y-100291866D01*
X215715895Y-100482342D01*
X215753990Y-100558533D01*
X215792085Y-100596628D01*
X216515895Y-99910914D02*
X215715895Y-99644247D01*
X216515895Y-99377580D01*
X213095238Y-101179809D02*
X212980952Y-101217904D01*
X212790476Y-101217904D01*
X212714285Y-101179809D01*
X212676190Y-101141714D01*
X212638095Y-101065523D01*
X212638095Y-100989333D01*
X212676190Y-100913142D01*
X212714285Y-100875047D01*
X212790476Y-100836952D01*
X212942857Y-100798857D01*
X213019047Y-100760761D01*
X213057142Y-100722666D01*
X213095238Y-100646476D01*
X213095238Y-100570285D01*
X213057142Y-100494095D01*
X213019047Y-100456000D01*
X212942857Y-100417904D01*
X212752380Y-100417904D01*
X212638095Y-100456000D01*
X212295238Y-100798857D02*
X212028571Y-100798857D01*
X211914285Y-101217904D02*
X212295238Y-101217904D01*
X212295238Y-100417904D01*
X211914285Y-100417904D01*
X211114285Y-101217904D02*
X211380952Y-100836952D01*
X211571428Y-101217904D02*
X211571428Y-100417904D01*
X211266666Y-100417904D01*
X211190476Y-100456000D01*
X211152380Y-100494095D01*
X211114285Y-100570285D01*
X211114285Y-100684571D01*
X211152380Y-100760761D01*
X211190476Y-100798857D01*
X211266666Y-100836952D01*
X211571428Y-100836952D01*
X210885714Y-100417904D02*
X210619047Y-101217904D01*
X210352380Y-100417904D01*
X209933333Y-100417904D02*
X209780952Y-100417904D01*
X209704761Y-100456000D01*
X209628571Y-100532190D01*
X209590476Y-100684571D01*
X209590476Y-100951238D01*
X209628571Y-101103619D01*
X209704761Y-101179809D01*
X209780952Y-101217904D01*
X209933333Y-101217904D01*
X210009523Y-101179809D01*
X210085714Y-101103619D01*
X210123809Y-100951238D01*
X210123809Y-100684571D01*
X210085714Y-100532190D01*
X210009523Y-100456000D01*
X209933333Y-100417904D01*
X208638095Y-101217904D02*
X208638095Y-100417904D01*
X208333333Y-100417904D01*
X208257142Y-100456000D01*
X208219047Y-100494095D01*
X208180952Y-100570285D01*
X208180952Y-100684571D01*
X208219047Y-100760761D01*
X208257142Y-100798857D01*
X208333333Y-100836952D01*
X208638095Y-100836952D01*
X207685714Y-100417904D02*
X207533333Y-100417904D01*
X207457142Y-100456000D01*
X207380952Y-100532190D01*
X207342857Y-100684571D01*
X207342857Y-100951238D01*
X207380952Y-101103619D01*
X207457142Y-101179809D01*
X207533333Y-101217904D01*
X207685714Y-101217904D01*
X207761904Y-101179809D01*
X207838095Y-101103619D01*
X207876190Y-100951238D01*
X207876190Y-100684571D01*
X207838095Y-100532190D01*
X207761904Y-100456000D01*
X207685714Y-100417904D01*
X207076190Y-100417904D02*
X206885714Y-101217904D01*
X206733333Y-100646476D01*
X206580952Y-101217904D01*
X206390476Y-100417904D01*
X206085714Y-100798857D02*
X205819047Y-100798857D01*
X205704761Y-101217904D02*
X206085714Y-101217904D01*
X206085714Y-100417904D01*
X205704761Y-100417904D01*
X204904761Y-101217904D02*
X205171428Y-100836952D01*
X205361904Y-101217904D02*
X205361904Y-100417904D01*
X205057142Y-100417904D01*
X204980952Y-100456000D01*
X204942857Y-100494095D01*
X204904761Y-100570285D01*
X204904761Y-100684571D01*
X204942857Y-100760761D01*
X204980952Y-100798857D01*
X205057142Y-100836952D01*
X205361904Y-100836952D01*
X213171428Y-102505904D02*
X213171428Y-101705904D01*
X212790476Y-102505904D02*
X212790476Y-101705904D01*
X212333333Y-102505904D01*
X212333333Y-101705904D01*
X211723809Y-101705904D02*
X211723809Y-102277333D01*
X211761904Y-102391619D01*
X211838095Y-102467809D01*
X211952380Y-102505904D01*
X212028571Y-102505904D01*
X211342857Y-102086857D02*
X211076190Y-102086857D01*
X210961904Y-102505904D02*
X211342857Y-102505904D01*
X211342857Y-101705904D01*
X210961904Y-101705904D01*
X210161904Y-102429714D02*
X210200000Y-102467809D01*
X210314285Y-102505904D01*
X210390476Y-102505904D01*
X210504761Y-102467809D01*
X210580952Y-102391619D01*
X210619047Y-102315428D01*
X210657142Y-102163047D01*
X210657142Y-102048761D01*
X210619047Y-101896380D01*
X210580952Y-101820190D01*
X210504761Y-101744000D01*
X210390476Y-101705904D01*
X210314285Y-101705904D01*
X210200000Y-101744000D01*
X210161904Y-101782095D01*
X209933333Y-101705904D02*
X209476190Y-101705904D01*
X209704761Y-102505904D02*
X209704761Y-101705904D01*
X209057142Y-101705904D02*
X208904761Y-101705904D01*
X208828571Y-101744000D01*
X208752380Y-101820190D01*
X208714285Y-101972571D01*
X208714285Y-102239238D01*
X208752380Y-102391619D01*
X208828571Y-102467809D01*
X208904761Y-102505904D01*
X209057142Y-102505904D01*
X209133333Y-102467809D01*
X209209523Y-102391619D01*
X209247619Y-102239238D01*
X209247619Y-101972571D01*
X209209523Y-101820190D01*
X209133333Y-101744000D01*
X209057142Y-101705904D01*
X207914285Y-102505904D02*
X208180952Y-102124952D01*
X208371428Y-102505904D02*
X208371428Y-101705904D01*
X208066666Y-101705904D01*
X207990476Y-101744000D01*
X207952380Y-101782095D01*
X207914285Y-101858285D01*
X207914285Y-101972571D01*
X207952380Y-102048761D01*
X207990476Y-102086857D01*
X208066666Y-102124952D01*
X208371428Y-102124952D01*
X207038095Y-101972571D02*
X206847619Y-102505904D01*
X206657142Y-101972571D01*
X205933333Y-102505904D02*
X206390476Y-102505904D01*
X206161904Y-102505904D02*
X206161904Y-101705904D01*
X206238095Y-101820190D01*
X206314285Y-101896380D01*
X206390476Y-101934476D01*
X205590476Y-102429714D02*
X205552380Y-102467809D01*
X205590476Y-102505904D01*
X205628571Y-102467809D01*
X205590476Y-102429714D01*
X205590476Y-102505904D01*
X205057142Y-101705904D02*
X204980952Y-101705904D01*
X204904761Y-101744000D01*
X204866666Y-101782095D01*
X204828571Y-101858285D01*
X204790476Y-102010666D01*
X204790476Y-102201142D01*
X204828571Y-102353523D01*
X204866666Y-102429714D01*
X204904761Y-102467809D01*
X204980952Y-102505904D01*
X205057142Y-102505904D01*
X205133333Y-102467809D01*
X205171428Y-102429714D01*
X205209523Y-102353523D01*
X205247619Y-102201142D01*
X205247619Y-102010666D01*
X205209523Y-101858285D01*
X205171428Y-101782095D01*
X205133333Y-101744000D01*
X205057142Y-101705904D01*
%TO.C,G\u002A\u002A\u002A*%
G36*
X204838493Y-99052540D02*
G01*
X204829370Y-99110187D01*
X204813111Y-99164067D01*
X204789517Y-99214685D01*
X204758386Y-99262550D01*
X204719517Y-99308168D01*
X204674986Y-99349673D01*
X204626253Y-99384940D01*
X204574633Y-99412534D01*
X204520009Y-99432516D01*
X204462267Y-99444947D01*
X204445032Y-99446847D01*
X204413800Y-99448227D01*
X204379596Y-99447806D01*
X204345197Y-99445709D01*
X204313378Y-99442063D01*
X204286916Y-99436994D01*
X204277568Y-99434523D01*
X204232946Y-99419494D01*
X204189745Y-99399882D01*
X204150207Y-99376815D01*
X204116574Y-99351420D01*
X204106188Y-99342667D01*
X204097597Y-99336080D01*
X204093215Y-99333561D01*
X204093210Y-99333561D01*
X204091898Y-99337464D01*
X204091169Y-99348198D01*
X204090966Y-99364384D01*
X204091230Y-99384648D01*
X204091904Y-99407613D01*
X204092929Y-99431903D01*
X204094246Y-99456140D01*
X204095799Y-99478950D01*
X204097530Y-99498956D01*
X204099379Y-99514781D01*
X204101289Y-99525049D01*
X204104354Y-99535497D01*
X204122602Y-99580627D01*
X204147681Y-99622492D01*
X204178751Y-99660039D01*
X204214972Y-99692219D01*
X204255505Y-99717982D01*
X204267783Y-99724006D01*
X204311665Y-99739893D01*
X204358216Y-99748895D01*
X204405859Y-99750910D01*
X204453017Y-99745837D01*
X204498114Y-99733575D01*
X204501479Y-99732328D01*
X204535563Y-99717097D01*
X204567324Y-99697525D01*
X204599470Y-99671965D01*
X204609493Y-99663680D01*
X204631219Y-99649827D01*
X204651583Y-99643363D01*
X204671644Y-99644057D01*
X204692458Y-99651678D01*
X204695851Y-99653460D01*
X204711423Y-99663894D01*
X204721138Y-99676125D01*
X204726133Y-99692177D01*
X204727545Y-99714071D01*
X204727518Y-99717954D01*
X204726511Y-99733036D01*
X204723370Y-99745720D01*
X204717169Y-99757426D01*
X204706983Y-99769573D01*
X204691886Y-99783580D01*
X204670952Y-99800870D01*
X204647123Y-99818679D01*
X204598268Y-99847854D01*
X204544771Y-99870697D01*
X204485998Y-99887508D01*
X204480882Y-99888548D01*
X204464998Y-99890664D01*
X204444688Y-99891908D01*
X204418692Y-99892337D01*
X204385749Y-99892006D01*
X204370195Y-99891643D01*
X204336582Y-99890090D01*
X204308324Y-99887267D01*
X204283386Y-99882745D01*
X204259737Y-99876098D01*
X204235342Y-99866899D01*
X204208169Y-99854722D01*
X204186284Y-99843889D01*
X204157383Y-99827359D01*
X204131081Y-99808974D01*
X204105034Y-99787038D01*
X204076897Y-99759858D01*
X204061377Y-99743520D01*
X204026399Y-99700665D01*
X203998733Y-99656549D01*
X203977713Y-99610165D01*
X203975525Y-99604362D01*
X203971468Y-99593692D01*
X203967860Y-99583968D01*
X203964673Y-99574679D01*
X203961878Y-99565315D01*
X203959450Y-99555366D01*
X203957359Y-99544322D01*
X203955578Y-99531673D01*
X203954079Y-99516909D01*
X203952834Y-99499520D01*
X203951816Y-99478995D01*
X203950998Y-99454826D01*
X203950350Y-99426501D01*
X203949846Y-99393510D01*
X203949457Y-99355344D01*
X203949157Y-99311492D01*
X203948916Y-99261445D01*
X203948709Y-99204692D01*
X203948506Y-99140724D01*
X203948280Y-99069029D01*
X203948240Y-99056629D01*
X203948036Y-98981183D01*
X204093238Y-98981183D01*
X204093590Y-99028469D01*
X204094829Y-99039996D01*
X204104433Y-99087735D01*
X204121093Y-99131615D01*
X204145148Y-99172376D01*
X204176936Y-99210756D01*
X204177495Y-99211340D01*
X204215102Y-99245296D01*
X204255564Y-99271650D01*
X204299270Y-99290654D01*
X204306997Y-99293050D01*
X204337026Y-99299441D01*
X204371059Y-99303171D01*
X204406188Y-99304127D01*
X204439507Y-99302195D01*
X204468110Y-99297261D01*
X204495740Y-99288797D01*
X204540783Y-99268440D01*
X204581632Y-99241352D01*
X204617626Y-99208091D01*
X204648101Y-99169216D01*
X204672395Y-99125284D01*
X204677248Y-99113943D01*
X204688254Y-99079845D01*
X204694545Y-99043226D01*
X204696589Y-99001689D01*
X204696572Y-98997562D01*
X204692344Y-98947642D01*
X204680631Y-98901114D01*
X204661383Y-98857833D01*
X204634553Y-98817651D01*
X204607613Y-98787713D01*
X204569886Y-98756206D01*
X204528391Y-98731478D01*
X204483924Y-98713761D01*
X204437281Y-98703286D01*
X204389259Y-98700288D01*
X204340654Y-98704998D01*
X204292261Y-98717650D01*
X204272064Y-98725586D01*
X204231032Y-98747859D01*
X204194225Y-98776346D01*
X204162203Y-98810167D01*
X204135531Y-98848441D01*
X204114771Y-98890289D01*
X204100486Y-98934830D01*
X204093238Y-98981183D01*
X203948036Y-98981183D01*
X203948029Y-98978619D01*
X203947912Y-98908630D01*
X203947890Y-98846474D01*
X203947965Y-98791965D01*
X203948137Y-98744916D01*
X203948408Y-98705140D01*
X203948780Y-98672449D01*
X203949252Y-98646658D01*
X203949828Y-98627579D01*
X203950507Y-98615025D01*
X203951291Y-98608810D01*
X203954289Y-98600659D01*
X203965531Y-98583359D01*
X203981183Y-98568705D01*
X203998691Y-98559359D01*
X204001533Y-98558496D01*
X204023960Y-98556246D01*
X204046070Y-98561243D01*
X204065330Y-98572969D01*
X204077468Y-98585757D01*
X204085679Y-98600695D01*
X204090032Y-98619290D01*
X204091310Y-98643669D01*
X204091310Y-98674697D01*
X204125284Y-98647812D01*
X204167056Y-98618838D01*
X204217395Y-98592889D01*
X204270600Y-98573871D01*
X204325808Y-98561803D01*
X204382151Y-98556704D01*
X204438766Y-98558593D01*
X204494787Y-98567489D01*
X204549349Y-98583409D01*
X204601587Y-98606374D01*
X204650635Y-98636402D01*
X204657913Y-98641677D01*
X204705409Y-98681539D01*
X204746066Y-98725821D01*
X204779713Y-98774195D01*
X204806179Y-98826333D01*
X204825294Y-98881909D01*
X204836889Y-98940593D01*
X204840768Y-99001689D01*
X204840791Y-99002059D01*
X204838493Y-99052540D01*
G37*
G36*
X203668984Y-98561754D02*
G01*
X203686623Y-98571549D01*
X203700955Y-98586013D01*
X203710597Y-98604680D01*
X203714162Y-98627084D01*
X203713952Y-98630732D01*
X203713136Y-98635518D01*
X203711524Y-98641693D01*
X203708927Y-98649692D01*
X203705155Y-98659950D01*
X203700021Y-98672904D01*
X203693334Y-98688987D01*
X203684907Y-98708636D01*
X203674549Y-98732285D01*
X203662073Y-98760370D01*
X203647290Y-98793326D01*
X203630009Y-98831588D01*
X203610043Y-98875592D01*
X203587203Y-98925773D01*
X203561299Y-98982566D01*
X203532142Y-99046407D01*
X203508134Y-99098990D01*
X203484413Y-99151019D01*
X203461895Y-99200489D01*
X203440801Y-99246908D01*
X203421354Y-99289782D01*
X203403778Y-99328618D01*
X203388294Y-99362925D01*
X203375125Y-99392208D01*
X203364496Y-99415975D01*
X203356627Y-99433732D01*
X203351743Y-99444988D01*
X203350065Y-99449248D01*
X203350173Y-99450119D01*
X203352728Y-99457847D01*
X203358194Y-99471234D01*
X203365931Y-99488919D01*
X203375296Y-99509540D01*
X203385650Y-99531734D01*
X203396352Y-99554141D01*
X203406759Y-99575397D01*
X203416231Y-99594142D01*
X203424127Y-99609013D01*
X203429806Y-99618648D01*
X203436243Y-99627712D01*
X203457783Y-99652761D01*
X203483663Y-99677268D01*
X203511346Y-99698966D01*
X203538297Y-99715590D01*
X203549659Y-99721306D01*
X203575001Y-99732407D01*
X203599688Y-99740325D01*
X203626675Y-99745902D01*
X203658917Y-99749981D01*
X203679740Y-99752544D01*
X203701622Y-99757086D01*
X203718048Y-99763509D01*
X203730589Y-99772479D01*
X203740820Y-99784661D01*
X203749899Y-99804246D01*
X203752392Y-99826235D01*
X203748213Y-99848046D01*
X203737739Y-99867763D01*
X203721350Y-99883468D01*
X203715176Y-99887346D01*
X203707517Y-99890665D01*
X203698058Y-99892549D01*
X203684657Y-99893386D01*
X203665168Y-99893558D01*
X203617155Y-99890482D01*
X203562372Y-99879643D01*
X203509284Y-99861441D01*
X203458683Y-99836342D01*
X203411360Y-99804814D01*
X203368106Y-99767325D01*
X203329713Y-99724340D01*
X203296972Y-99676327D01*
X203296170Y-99674881D01*
X203291451Y-99665517D01*
X203283604Y-99649273D01*
X203272847Y-99626615D01*
X203259398Y-99598013D01*
X203243472Y-99563934D01*
X203225288Y-99524847D01*
X203205063Y-99481218D01*
X203183013Y-99433518D01*
X203159355Y-99382213D01*
X203134307Y-99327771D01*
X203108086Y-99270661D01*
X203080909Y-99211351D01*
X203052993Y-99150308D01*
X203039663Y-99121132D01*
X203008440Y-99052772D01*
X202980403Y-98991350D01*
X202955382Y-98936472D01*
X202933205Y-98887743D01*
X202913701Y-98844770D01*
X202896697Y-98807157D01*
X202882023Y-98774511D01*
X202869506Y-98746437D01*
X202858976Y-98722541D01*
X202850260Y-98702428D01*
X202843188Y-98685704D01*
X202837587Y-98671974D01*
X202833287Y-98660845D01*
X202830115Y-98651922D01*
X202827900Y-98644810D01*
X202826470Y-98639116D01*
X202825654Y-98634444D01*
X202825281Y-98630401D01*
X202825178Y-98626591D01*
X202825587Y-98615068D01*
X202829701Y-98596855D01*
X202839304Y-98582242D01*
X202855711Y-98568737D01*
X202859474Y-98566341D01*
X202880946Y-98557984D01*
X202903232Y-98557161D01*
X202924630Y-98563702D01*
X202943439Y-98577439D01*
X202944705Y-98578931D01*
X202948814Y-98585205D01*
X202954683Y-98595673D01*
X202962470Y-98610668D01*
X202972333Y-98630523D01*
X202984432Y-98655570D01*
X202998924Y-98686145D01*
X203015968Y-98722579D01*
X203035723Y-98765206D01*
X203058347Y-98814360D01*
X203083999Y-98870374D01*
X203112837Y-98933580D01*
X203115391Y-98939186D01*
X203138059Y-98988904D01*
X203159719Y-99036352D01*
X203180133Y-99081007D01*
X203199060Y-99122346D01*
X203216259Y-99159847D01*
X203231491Y-99192987D01*
X203244515Y-99221244D01*
X203255091Y-99244093D01*
X203262978Y-99261014D01*
X203267937Y-99271483D01*
X203269728Y-99274977D01*
X203269732Y-99274971D01*
X203271602Y-99270969D01*
X203276635Y-99260015D01*
X203284588Y-99242638D01*
X203295219Y-99219371D01*
X203308286Y-99190745D01*
X203323547Y-99157289D01*
X203340758Y-99119536D01*
X203359679Y-99078017D01*
X203380066Y-99033262D01*
X203401678Y-98985803D01*
X203424272Y-98936171D01*
X203446460Y-98887512D01*
X203468486Y-98839384D01*
X203489461Y-98793730D01*
X203509123Y-98751109D01*
X203527213Y-98712079D01*
X203543470Y-98677200D01*
X203557633Y-98647030D01*
X203569443Y-98622128D01*
X203578637Y-98603053D01*
X203584957Y-98590364D01*
X203588141Y-98584620D01*
X203593056Y-98578601D01*
X203610075Y-98565052D01*
X203629326Y-98558039D01*
X203649424Y-98557095D01*
X203668984Y-98561754D01*
G37*
G36*
X214771363Y-98557857D02*
G01*
X214828367Y-98566682D01*
X214883492Y-98582834D01*
X214936142Y-98606108D01*
X214985723Y-98636303D01*
X215031640Y-98673217D01*
X215073298Y-98716647D01*
X215110101Y-98766391D01*
X215118137Y-98779264D01*
X215142188Y-98825566D01*
X215159541Y-98873817D01*
X215170632Y-98925442D01*
X215175894Y-98981868D01*
X215176043Y-98985689D01*
X215174694Y-99047617D01*
X215166039Y-99105849D01*
X215149964Y-99160694D01*
X215126355Y-99212460D01*
X215095099Y-99261456D01*
X215056082Y-99307992D01*
X215021775Y-99340944D01*
X214973846Y-99377514D01*
X214922474Y-99406879D01*
X214868127Y-99428782D01*
X214811274Y-99442962D01*
X214800609Y-99444530D01*
X214773245Y-99446750D01*
X214741708Y-99447487D01*
X214708464Y-99446820D01*
X214675982Y-99444822D01*
X214646727Y-99441572D01*
X214623168Y-99437146D01*
X214584300Y-99425311D01*
X214534255Y-99404000D01*
X214488310Y-99377445D01*
X214456570Y-99354895D01*
X214430842Y-99333386D01*
X214412260Y-99313337D01*
X214400477Y-99294181D01*
X214395148Y-99275348D01*
X214395925Y-99256271D01*
X214402464Y-99236380D01*
X214402713Y-99235836D01*
X214415643Y-99217107D01*
X214433828Y-99204497D01*
X214456434Y-99198592D01*
X214463692Y-99198108D01*
X214480437Y-99199296D01*
X214496274Y-99204612D01*
X214513150Y-99214876D01*
X214533013Y-99230913D01*
X214539707Y-99236522D01*
X214568805Y-99257088D01*
X214601499Y-99275320D01*
X214634973Y-99289778D01*
X214666407Y-99299024D01*
X214686050Y-99302214D01*
X214712632Y-99303989D01*
X214744650Y-99303611D01*
X214788113Y-99299453D01*
X214831558Y-99289045D01*
X214871274Y-99272020D01*
X214908476Y-99247848D01*
X214944374Y-99215995D01*
X214972065Y-99185074D01*
X214997248Y-99148004D01*
X215015228Y-99108728D01*
X215026562Y-99065989D01*
X215031806Y-99018531D01*
X215031856Y-99017444D01*
X215031777Y-98976695D01*
X215027197Y-98940394D01*
X215017576Y-98905827D01*
X215002377Y-98870282D01*
X214994102Y-98854632D01*
X214966572Y-98814014D01*
X214933168Y-98778408D01*
X214894760Y-98748530D01*
X214852221Y-98725099D01*
X214806420Y-98708831D01*
X214791873Y-98705841D01*
X214765305Y-98702904D01*
X214735419Y-98701786D01*
X214705035Y-98702477D01*
X214676973Y-98704970D01*
X214654053Y-98709258D01*
X214614766Y-98723166D01*
X214575709Y-98743566D01*
X214540791Y-98768598D01*
X214524656Y-98782122D01*
X214512457Y-98791966D01*
X214503523Y-98798387D01*
X214496318Y-98802368D01*
X214489310Y-98804892D01*
X214480964Y-98806941D01*
X214472629Y-98808344D01*
X214450216Y-98807310D01*
X214430463Y-98799753D01*
X214414267Y-98786847D01*
X214402528Y-98769764D01*
X214396143Y-98749677D01*
X214396013Y-98727761D01*
X214403034Y-98705188D01*
X214406800Y-98698666D01*
X214420204Y-98682327D01*
X214439362Y-98664411D01*
X214462934Y-98645864D01*
X214489580Y-98627629D01*
X214517959Y-98610653D01*
X214546730Y-98595881D01*
X214574553Y-98584257D01*
X214595027Y-98577358D01*
X214654098Y-98562992D01*
X214713075Y-98556560D01*
X214771363Y-98557857D01*
G37*
G36*
X214187213Y-99413410D02*
G01*
X214185377Y-99416208D01*
X214174207Y-99428996D01*
X214161496Y-99439126D01*
X214143702Y-99446429D01*
X214121186Y-99448755D01*
X214099417Y-99444473D01*
X214097973Y-99443907D01*
X214078822Y-99431903D01*
X214064711Y-99413750D01*
X214055966Y-99390032D01*
X214052911Y-99361329D01*
X214052821Y-99333503D01*
X214018847Y-99359327D01*
X213998693Y-99373906D01*
X213949608Y-99403314D01*
X213898718Y-99425161D01*
X213845250Y-99439680D01*
X213788434Y-99447106D01*
X213727497Y-99447674D01*
X213691785Y-99444835D01*
X213634233Y-99434303D01*
X213580146Y-99416435D01*
X213529159Y-99391068D01*
X213480906Y-99358039D01*
X213435022Y-99317183D01*
X213425346Y-99307261D01*
X213387004Y-99261739D01*
X213356290Y-99213648D01*
X213332888Y-99162325D01*
X213316481Y-99107103D01*
X213306754Y-99047318D01*
X213305435Y-99032239D01*
X213305321Y-99004913D01*
X213447858Y-99004913D01*
X213452003Y-99051439D01*
X213463357Y-99096556D01*
X213481402Y-99139415D01*
X213505616Y-99179169D01*
X213535481Y-99214967D01*
X213570476Y-99245962D01*
X213610082Y-99271304D01*
X213653779Y-99290146D01*
X213659763Y-99292032D01*
X213690550Y-99298917D01*
X213725265Y-99303002D01*
X213761038Y-99304167D01*
X213794996Y-99302294D01*
X213824270Y-99297261D01*
X213835346Y-99294205D01*
X213881512Y-99276385D01*
X213923688Y-99251719D01*
X213961221Y-99220816D01*
X213993458Y-99184285D01*
X214019743Y-99142734D01*
X214039425Y-99096774D01*
X214043435Y-99084329D01*
X214046619Y-99072195D01*
X214048681Y-99059925D01*
X214049857Y-99045496D01*
X214050385Y-99026882D01*
X214050500Y-99002059D01*
X214050375Y-98977448D01*
X214049859Y-98958994D01*
X214048709Y-98944766D01*
X214046681Y-98932753D01*
X214043534Y-98920949D01*
X214039022Y-98907345D01*
X214021552Y-98867085D01*
X213995312Y-98825162D01*
X213962637Y-98787247D01*
X213946170Y-98771987D01*
X213906522Y-98743080D01*
X213863366Y-98721414D01*
X213817388Y-98707228D01*
X213769273Y-98700764D01*
X213719708Y-98702259D01*
X213691290Y-98706400D01*
X213648905Y-98717311D01*
X213610665Y-98734000D01*
X213574884Y-98757270D01*
X213539877Y-98787922D01*
X213531673Y-98796223D01*
X213501194Y-98832616D01*
X213478085Y-98871047D01*
X213461650Y-98912861D01*
X213451193Y-98959403D01*
X213447858Y-99004913D01*
X213305321Y-99004913D01*
X213305185Y-98972292D01*
X213312851Y-98913516D01*
X213328254Y-98856618D01*
X213351217Y-98802304D01*
X213381561Y-98751277D01*
X213391203Y-98738302D01*
X213411688Y-98714261D01*
X213435785Y-98689120D01*
X213461452Y-98664869D01*
X213486642Y-98643496D01*
X213509313Y-98626990D01*
X213553437Y-98601915D01*
X213607718Y-98579428D01*
X213663953Y-98564430D01*
X213721361Y-98556915D01*
X213779163Y-98556876D01*
X213836579Y-98564305D01*
X213892828Y-98579196D01*
X213947131Y-98601542D01*
X213998708Y-98631335D01*
X214001536Y-98633251D01*
X214016069Y-98643619D01*
X214028543Y-98653309D01*
X214036517Y-98660442D01*
X214037223Y-98661184D01*
X214044540Y-98667829D01*
X214049421Y-98670558D01*
X214049456Y-98670545D01*
X214050061Y-98666104D01*
X214050634Y-98654174D01*
X214051165Y-98635462D01*
X214051644Y-98610676D01*
X214052061Y-98580523D01*
X214052406Y-98545710D01*
X214052669Y-98506945D01*
X214052841Y-98464935D01*
X214052911Y-98420388D01*
X214052927Y-98388783D01*
X214052975Y-98341504D01*
X214053069Y-98301427D01*
X214053226Y-98267902D01*
X214053466Y-98240279D01*
X214053807Y-98217907D01*
X214054268Y-98200136D01*
X214054868Y-98186317D01*
X214055625Y-98175800D01*
X214056559Y-98167934D01*
X214057687Y-98162070D01*
X214059029Y-98157557D01*
X214060604Y-98153746D01*
X214072459Y-98135063D01*
X214089447Y-98120411D01*
X214109133Y-98112119D01*
X214130074Y-98110293D01*
X214150825Y-98115037D01*
X214169942Y-98126456D01*
X214185983Y-98144654D01*
X214196952Y-98161571D01*
X214196931Y-98779481D01*
X214196923Y-99002059D01*
X214196910Y-99397390D01*
X214187213Y-99413410D01*
G37*
G36*
X212078941Y-98201425D02*
G01*
X212093514Y-98203517D01*
X212104169Y-98206912D01*
X212104867Y-98207283D01*
X212120849Y-98219050D01*
X212134143Y-98234562D01*
X212142137Y-98250802D01*
X212142232Y-98251215D01*
X212142880Y-98258803D01*
X212143474Y-98274351D01*
X212144011Y-98297614D01*
X212144490Y-98328349D01*
X212144907Y-98366314D01*
X212145262Y-98411265D01*
X212145553Y-98462959D01*
X212145777Y-98521152D01*
X212145933Y-98585603D01*
X212146018Y-98656067D01*
X212146030Y-98732301D01*
X212146004Y-98788933D01*
X212145944Y-98857488D01*
X212145848Y-98918588D01*
X212145712Y-98972679D01*
X212145530Y-99020207D01*
X212145298Y-99061618D01*
X212145008Y-99097358D01*
X212144657Y-99127874D01*
X212144239Y-99153611D01*
X212143748Y-99175016D01*
X212143179Y-99192534D01*
X212142527Y-99206612D01*
X212141787Y-99217696D01*
X212140952Y-99226231D01*
X212140018Y-99232665D01*
X212129671Y-99271212D01*
X212111448Y-99310726D01*
X212086754Y-99347076D01*
X212056438Y-99379366D01*
X212021352Y-99406701D01*
X211982347Y-99428185D01*
X211940272Y-99442923D01*
X211933634Y-99444297D01*
X211913839Y-99446454D01*
X211889637Y-99447305D01*
X211863545Y-99446920D01*
X211838082Y-99445367D01*
X211815763Y-99442716D01*
X211799107Y-99439036D01*
X211788841Y-99435463D01*
X211761054Y-99423180D01*
X211734600Y-99407977D01*
X211710802Y-99390875D01*
X211690981Y-99372892D01*
X211676460Y-99355049D01*
X211668559Y-99338364D01*
X211666361Y-99317060D01*
X211670417Y-99295439D01*
X211680113Y-99276411D01*
X211694665Y-99262257D01*
X211697035Y-99260753D01*
X211719738Y-99251099D01*
X211742972Y-99249639D01*
X211766600Y-99256359D01*
X211790482Y-99271247D01*
X211792101Y-99272525D01*
X211810016Y-99285921D01*
X211824788Y-99294673D01*
X211839037Y-99299737D01*
X211855382Y-99302071D01*
X211876443Y-99302630D01*
X211894637Y-99302305D01*
X211909167Y-99300943D01*
X211920394Y-99298106D01*
X211930892Y-99293355D01*
X211950146Y-99281386D01*
X211972165Y-99260888D01*
X211988494Y-99235476D01*
X211999984Y-99212079D01*
X212001161Y-98955732D01*
X212002338Y-98699384D01*
X211894653Y-98699384D01*
X211876881Y-98699379D01*
X211848033Y-98699307D01*
X211825788Y-98699087D01*
X211809066Y-98698638D01*
X211796789Y-98697881D01*
X211787879Y-98696735D01*
X211781257Y-98695120D01*
X211775843Y-98692956D01*
X211770561Y-98690163D01*
X211756995Y-98680160D01*
X211743558Y-98662622D01*
X211736056Y-98642105D01*
X211734789Y-98620387D01*
X211740053Y-98599242D01*
X211752147Y-98580448D01*
X211756321Y-98576075D01*
X211763530Y-98569776D01*
X211771648Y-98564896D01*
X211781723Y-98561256D01*
X211794800Y-98558675D01*
X211811926Y-98556973D01*
X211834148Y-98555971D01*
X211862511Y-98555488D01*
X211898063Y-98555344D01*
X212002043Y-98555253D01*
X212002043Y-98404781D01*
X212002058Y-98370406D01*
X212002137Y-98337450D01*
X212002324Y-98311102D01*
X212002662Y-98290484D01*
X212003194Y-98274724D01*
X212003965Y-98262945D01*
X212005016Y-98254272D01*
X212006392Y-98247830D01*
X212008136Y-98242745D01*
X212010291Y-98238141D01*
X212012975Y-98233308D01*
X212028050Y-98215735D01*
X212047704Y-98204841D01*
X212071151Y-98201103D01*
X212078941Y-98201425D01*
G37*
G36*
X211514255Y-99028006D02*
G01*
X211507524Y-99084684D01*
X211494204Y-99139536D01*
X211474474Y-99191310D01*
X211448511Y-99238753D01*
X211441784Y-99248872D01*
X211404217Y-99297024D01*
X211361450Y-99339425D01*
X211314144Y-99375621D01*
X211262957Y-99405160D01*
X211208549Y-99427591D01*
X211151578Y-99442461D01*
X211130026Y-99445515D01*
X211095860Y-99447664D01*
X211058561Y-99447601D01*
X211020864Y-99445428D01*
X210985503Y-99441247D01*
X210955216Y-99435159D01*
X210921327Y-99424880D01*
X210866790Y-99401738D01*
X210816420Y-99371670D01*
X210770774Y-99334979D01*
X210758736Y-99323415D01*
X210746154Y-99309177D01*
X210738508Y-99296267D01*
X210734714Y-99282685D01*
X210733690Y-99266427D01*
X210734842Y-99252948D01*
X210742246Y-99231766D01*
X210755636Y-99215033D01*
X210773989Y-99203527D01*
X210796288Y-99198030D01*
X210821511Y-99199319D01*
X210821653Y-99199346D01*
X210833187Y-99204058D01*
X210849049Y-99214174D01*
X210868100Y-99228970D01*
X210882707Y-99240732D01*
X210915027Y-99263311D01*
X210946962Y-99280329D01*
X210980772Y-99293074D01*
X210985035Y-99294373D01*
X210998494Y-99297953D01*
X211011748Y-99300338D01*
X211026906Y-99301747D01*
X211046077Y-99302401D01*
X211071368Y-99302520D01*
X211091445Y-99302388D01*
X211110725Y-99301877D01*
X211125534Y-99300737D01*
X211137960Y-99298705D01*
X211150094Y-99295522D01*
X211164024Y-99290924D01*
X211184577Y-99282972D01*
X211228391Y-99259957D01*
X211267485Y-99230644D01*
X211301213Y-99195661D01*
X211328926Y-99155633D01*
X211349975Y-99111187D01*
X211363165Y-99076184D01*
X210669861Y-99072066D01*
X210655291Y-99063004D01*
X210651747Y-99060509D01*
X210640314Y-99049488D01*
X210631028Y-99036696D01*
X210629506Y-99033945D01*
X210625789Y-99026168D01*
X210623587Y-99018281D01*
X210622665Y-99008257D01*
X210622786Y-98994070D01*
X210623716Y-98973693D01*
X210628827Y-98928580D01*
X210774870Y-98928580D01*
X210777443Y-98928767D01*
X210787562Y-98928991D01*
X210804742Y-98929200D01*
X210828327Y-98929392D01*
X210857666Y-98929563D01*
X210892103Y-98929709D01*
X210930985Y-98929829D01*
X210973658Y-98929919D01*
X211019470Y-98929975D01*
X211067765Y-98929994D01*
X211360660Y-98929994D01*
X211358121Y-98916610D01*
X211356660Y-98911357D01*
X211351855Y-98898535D01*
X211344813Y-98882128D01*
X211336479Y-98864414D01*
X211325745Y-98844003D01*
X211314701Y-98826811D01*
X211301482Y-98810448D01*
X211283939Y-98791952D01*
X211272755Y-98781102D01*
X211235978Y-98751145D01*
X211197349Y-98728577D01*
X211155602Y-98712753D01*
X211109472Y-98703028D01*
X211073508Y-98700155D01*
X211025846Y-98703100D01*
X210979858Y-98713438D01*
X210936328Y-98730688D01*
X210896037Y-98754367D01*
X210859768Y-98783996D01*
X210828304Y-98819093D01*
X210802427Y-98859177D01*
X210782920Y-98903767D01*
X210779301Y-98914440D01*
X210776102Y-98924250D01*
X210774870Y-98928580D01*
X210628827Y-98928580D01*
X210629596Y-98921791D01*
X210643501Y-98865274D01*
X210664719Y-98811429D01*
X210692827Y-98760898D01*
X210727407Y-98714322D01*
X210768037Y-98672340D01*
X210814298Y-98635595D01*
X210865769Y-98604725D01*
X210916416Y-98582631D01*
X210972829Y-98566316D01*
X211030568Y-98557613D01*
X211088796Y-98556479D01*
X211146677Y-98562875D01*
X211203375Y-98576757D01*
X211258053Y-98598085D01*
X211309875Y-98626817D01*
X211315443Y-98630551D01*
X211338378Y-98648003D01*
X211363405Y-98669687D01*
X211388438Y-98693633D01*
X211411390Y-98717872D01*
X211430177Y-98740434D01*
X211445223Y-98762554D01*
X211461766Y-98791376D01*
X211477279Y-98822581D01*
X211490332Y-98853278D01*
X211499497Y-98880578D01*
X211507236Y-98914188D01*
X211509187Y-98929994D01*
X211514218Y-98970757D01*
X211514255Y-99028006D01*
G37*
G36*
X210106989Y-98562214D02*
G01*
X210162811Y-98574711D01*
X210216838Y-98594486D01*
X210244492Y-98608645D01*
X210280228Y-98631582D01*
X210315966Y-98659049D01*
X210349786Y-98689424D01*
X210379766Y-98721086D01*
X210403986Y-98752414D01*
X210408835Y-98759827D01*
X210426028Y-98789678D01*
X210442284Y-98822922D01*
X210456119Y-98856350D01*
X210466052Y-98886755D01*
X210468374Y-98896407D01*
X210473251Y-98926017D01*
X210476433Y-98960289D01*
X210477861Y-98996759D01*
X210477476Y-99032962D01*
X210475219Y-99066436D01*
X210471031Y-99094715D01*
X210467738Y-99109438D01*
X210451062Y-99163710D01*
X210427871Y-99213765D01*
X210397617Y-99260642D01*
X210359749Y-99305383D01*
X210355805Y-99309506D01*
X210325928Y-99338759D01*
X210297476Y-99362598D01*
X210268297Y-99382683D01*
X210236239Y-99400675D01*
X210212072Y-99412290D01*
X210163686Y-99430732D01*
X210114610Y-99442768D01*
X210072529Y-99447776D01*
X210025732Y-99448581D01*
X209977989Y-99445202D01*
X209932088Y-99437839D01*
X209890815Y-99426694D01*
X209861899Y-99415348D01*
X209830421Y-99400134D01*
X209799367Y-99382533D01*
X209770223Y-99363516D01*
X209744476Y-99344059D01*
X209723612Y-99325132D01*
X209709115Y-99307711D01*
X209704957Y-99300502D01*
X209698333Y-99279317D01*
X209698290Y-99257401D01*
X209704389Y-99236604D01*
X209716192Y-99218778D01*
X209733260Y-99205774D01*
X209740114Y-99202755D01*
X209762746Y-99198138D01*
X209786093Y-99200156D01*
X209807838Y-99208390D01*
X209825665Y-99222424D01*
X209825924Y-99222708D01*
X209833665Y-99229847D01*
X209845594Y-99239516D01*
X209859242Y-99249708D01*
X209889675Y-99268814D01*
X209933747Y-99288435D01*
X209980011Y-99300586D01*
X210027593Y-99305201D01*
X210075622Y-99302215D01*
X210123222Y-99291562D01*
X210169520Y-99273174D01*
X210182859Y-99266399D01*
X210198899Y-99257115D01*
X210213158Y-99246891D01*
X210228020Y-99233957D01*
X210245869Y-99216548D01*
X210251417Y-99210871D01*
X210282480Y-99174032D01*
X210305833Y-99135872D01*
X210321930Y-99095287D01*
X210331228Y-99051174D01*
X210334180Y-99002430D01*
X210334148Y-98996878D01*
X210332362Y-98961176D01*
X210327402Y-98930079D01*
X210318649Y-98900732D01*
X210305483Y-98870282D01*
X210297032Y-98854255D01*
X210269897Y-98814355D01*
X210236783Y-98779055D01*
X210198721Y-98749210D01*
X210156739Y-98725677D01*
X210111868Y-98709312D01*
X210100902Y-98706772D01*
X210072193Y-98702866D01*
X210040035Y-98701392D01*
X210007268Y-98702316D01*
X209976731Y-98705603D01*
X209951265Y-98711220D01*
X209925329Y-98720377D01*
X209879294Y-98743191D01*
X209837410Y-98773114D01*
X209829986Y-98779313D01*
X209814124Y-98791906D01*
X209801769Y-98800135D01*
X209791101Y-98804898D01*
X209780299Y-98807097D01*
X209767542Y-98807630D01*
X209750394Y-98805755D01*
X209729513Y-98797369D01*
X209713164Y-98783327D01*
X209702239Y-98764803D01*
X209697631Y-98742971D01*
X209700231Y-98719006D01*
X209701351Y-98715309D01*
X209707042Y-98703605D01*
X209716949Y-98690592D01*
X209732321Y-98674541D01*
X209741287Y-98666041D01*
X209784568Y-98631749D01*
X209832331Y-98603696D01*
X209883680Y-98582030D01*
X209937716Y-98566902D01*
X209993545Y-98558457D01*
X210050268Y-98556845D01*
X210106989Y-98562214D01*
G37*
G36*
X209404279Y-98111471D02*
G01*
X209426371Y-98118569D01*
X209444088Y-98132634D01*
X209457554Y-98153746D01*
X209457699Y-98154062D01*
X209458719Y-98156610D01*
X209459643Y-98159770D01*
X209460474Y-98163944D01*
X209461217Y-98169533D01*
X209461878Y-98176937D01*
X209462462Y-98186559D01*
X209462973Y-98198800D01*
X209463416Y-98214061D01*
X209463796Y-98232742D01*
X209464118Y-98255246D01*
X209464388Y-98281974D01*
X209464609Y-98313326D01*
X209464788Y-98349705D01*
X209464928Y-98391510D01*
X209465035Y-98439145D01*
X209465114Y-98493009D01*
X209465170Y-98553504D01*
X209465207Y-98621032D01*
X209465231Y-98695993D01*
X209465247Y-98778789D01*
X209465251Y-98821784D01*
X209465249Y-98901311D01*
X209465226Y-98973190D01*
X209465179Y-99037813D01*
X209465106Y-99095572D01*
X209465000Y-99146857D01*
X209464859Y-99192060D01*
X209464679Y-99231573D01*
X209464455Y-99265787D01*
X209464184Y-99295093D01*
X209463861Y-99319884D01*
X209463484Y-99340550D01*
X209463047Y-99357483D01*
X209462547Y-99371075D01*
X209461980Y-99381717D01*
X209461342Y-99389800D01*
X209460630Y-99395716D01*
X209459838Y-99399857D01*
X209458964Y-99402614D01*
X209454845Y-99411246D01*
X209440498Y-99430465D01*
X209422098Y-99443052D01*
X209414540Y-99445878D01*
X209392032Y-99448862D01*
X209369765Y-99444682D01*
X209349623Y-99433891D01*
X209333490Y-99417041D01*
X209323265Y-99402128D01*
X209320890Y-99175327D01*
X209320639Y-99151366D01*
X209320121Y-99104089D01*
X209319599Y-99063950D01*
X209319005Y-99030195D01*
X209318271Y-99002067D01*
X209317329Y-98978813D01*
X209316113Y-98959677D01*
X209314553Y-98943904D01*
X209312583Y-98930738D01*
X209310135Y-98919426D01*
X209307141Y-98909210D01*
X209303534Y-98899338D01*
X209299245Y-98889052D01*
X209294207Y-98877599D01*
X209278845Y-98848551D01*
X209253662Y-98813624D01*
X209223225Y-98781495D01*
X209189025Y-98753514D01*
X209152555Y-98731034D01*
X209115305Y-98715407D01*
X209110528Y-98713998D01*
X209091913Y-98709548D01*
X209070111Y-98705434D01*
X209048904Y-98702396D01*
X209034977Y-98701138D01*
X208987118Y-98701902D01*
X208940632Y-98710270D01*
X208896318Y-98725754D01*
X208854977Y-98747871D01*
X208817407Y-98776132D01*
X208784408Y-98810054D01*
X208756780Y-98849149D01*
X208735322Y-98892932D01*
X208734363Y-98895381D01*
X208730353Y-98906166D01*
X208726965Y-98916719D01*
X208724147Y-98927811D01*
X208721847Y-98940210D01*
X208720013Y-98954687D01*
X208718590Y-98972011D01*
X208717527Y-98992953D01*
X208716771Y-99018282D01*
X208716270Y-99048767D01*
X208715970Y-99085179D01*
X208715820Y-99128287D01*
X208715766Y-99178861D01*
X208715753Y-99200943D01*
X208715700Y-99244776D01*
X208715590Y-99281411D01*
X208715401Y-99311565D01*
X208715106Y-99335957D01*
X208714683Y-99355304D01*
X208714107Y-99370323D01*
X208713352Y-99381733D01*
X208712396Y-99390250D01*
X208711214Y-99396593D01*
X208709781Y-99401479D01*
X208708073Y-99405626D01*
X208706546Y-99408734D01*
X208698762Y-99421424D01*
X208690662Y-99431090D01*
X208676923Y-99440795D01*
X208656204Y-99447789D01*
X208634477Y-99448136D01*
X208613490Y-99442135D01*
X208594991Y-99430086D01*
X208580727Y-99412286D01*
X208571287Y-99395490D01*
X208572679Y-99161712D01*
X208574070Y-98927935D01*
X208584877Y-98888324D01*
X208589877Y-98871357D01*
X208611679Y-98815792D01*
X208640553Y-98763710D01*
X208675909Y-98715838D01*
X208717159Y-98672900D01*
X208763716Y-98635620D01*
X208814991Y-98604725D01*
X208857184Y-98585759D01*
X208913291Y-98568195D01*
X208970633Y-98558301D01*
X209028440Y-98555996D01*
X209085944Y-98561200D01*
X209142374Y-98573832D01*
X209196961Y-98593810D01*
X209248935Y-98621054D01*
X209297528Y-98655483D01*
X209321206Y-98674771D01*
X209321206Y-98421733D01*
X209321239Y-98379607D01*
X209321413Y-98323149D01*
X209321735Y-98274921D01*
X209322207Y-98234918D01*
X209322828Y-98203138D01*
X209323598Y-98179578D01*
X209324518Y-98164234D01*
X209325586Y-98157102D01*
X209334737Y-98140623D01*
X209350565Y-98124901D01*
X209369938Y-98114357D01*
X209390740Y-98110506D01*
X209404279Y-98111471D01*
G37*
G36*
X207982082Y-98559609D02*
G01*
X208038325Y-98570068D01*
X208092941Y-98587657D01*
X208145081Y-98612348D01*
X208193897Y-98644112D01*
X208227870Y-98669692D01*
X208230745Y-98639448D01*
X208233671Y-98618162D01*
X208238974Y-98600272D01*
X208247485Y-98585940D01*
X208260270Y-98572755D01*
X208273827Y-98563482D01*
X208294605Y-98556880D01*
X208316141Y-98557498D01*
X208336809Y-98565211D01*
X208354980Y-98579897D01*
X208360247Y-98586155D01*
X208367991Y-98597198D01*
X208372019Y-98605595D01*
X208372136Y-98606610D01*
X208372437Y-98614806D01*
X208372702Y-98630450D01*
X208372928Y-98652961D01*
X208373114Y-98681758D01*
X208373258Y-98716262D01*
X208373359Y-98755892D01*
X208373414Y-98800067D01*
X208373423Y-98848208D01*
X208373383Y-98899733D01*
X208373294Y-98954063D01*
X208373153Y-99010617D01*
X208372001Y-99406270D01*
X208360966Y-99420736D01*
X208358895Y-99423288D01*
X208347739Y-99434125D01*
X208336258Y-99441940D01*
X208331455Y-99444005D01*
X208311261Y-99448237D01*
X208289841Y-99447299D01*
X208271045Y-99441233D01*
X208266402Y-99438304D01*
X208254670Y-99428194D01*
X208244342Y-99416177D01*
X208231988Y-99398753D01*
X208229897Y-99167462D01*
X208229507Y-99124798D01*
X208229090Y-99081772D01*
X208228684Y-99045668D01*
X208228258Y-99015778D01*
X208227779Y-98991392D01*
X208227217Y-98971802D01*
X208226537Y-98956300D01*
X208225710Y-98944174D01*
X208224701Y-98934718D01*
X208223480Y-98927222D01*
X208222015Y-98920977D01*
X208220272Y-98915274D01*
X208218220Y-98909404D01*
X208215928Y-98903193D01*
X208194367Y-98857213D01*
X208166682Y-98815885D01*
X208133516Y-98779821D01*
X208095511Y-98749631D01*
X208053310Y-98725924D01*
X208007555Y-98709312D01*
X207988691Y-98705559D01*
X207961601Y-98702814D01*
X207931555Y-98701807D01*
X207901293Y-98702537D01*
X207873551Y-98705008D01*
X207851070Y-98709220D01*
X207824243Y-98717859D01*
X207780845Y-98738388D01*
X207741233Y-98765521D01*
X207706180Y-98798484D01*
X207676454Y-98836506D01*
X207652827Y-98878815D01*
X207636068Y-98924638D01*
X207635888Y-98925292D01*
X207633980Y-98932599D01*
X207632359Y-98939989D01*
X207630994Y-98948203D01*
X207629852Y-98957984D01*
X207628900Y-98970070D01*
X207628106Y-98985205D01*
X207627439Y-99004129D01*
X207626865Y-99027583D01*
X207626352Y-99056308D01*
X207625869Y-99091045D01*
X207625382Y-99132536D01*
X207624859Y-99181522D01*
X207622519Y-99406283D01*
X207611427Y-99420818D01*
X207598546Y-99433923D01*
X207577893Y-99445048D01*
X207553885Y-99448865D01*
X207532670Y-99445566D01*
X207512208Y-99434603D01*
X207494861Y-99416161D01*
X207482506Y-99398722D01*
X207482659Y-99173624D01*
X207482659Y-99173338D01*
X207482706Y-99124255D01*
X207482793Y-99082640D01*
X207482945Y-99047730D01*
X207483187Y-99018763D01*
X207483545Y-98994975D01*
X207484043Y-98975602D01*
X207484707Y-98959881D01*
X207485562Y-98947050D01*
X207486633Y-98936344D01*
X207487945Y-98927001D01*
X207489525Y-98918257D01*
X207491397Y-98909349D01*
X207505399Y-98859604D01*
X207528598Y-98804683D01*
X207558845Y-98753296D01*
X207595676Y-98706110D01*
X207638631Y-98663794D01*
X207687244Y-98627014D01*
X207706153Y-98615270D01*
X207757805Y-98589648D01*
X207812073Y-98571300D01*
X207868108Y-98560196D01*
X207925060Y-98556309D01*
X207982082Y-98559609D01*
G37*
G36*
X207283606Y-99050716D02*
G01*
X207282444Y-99068772D01*
X207280507Y-99084241D01*
X207277581Y-99099217D01*
X207273455Y-99115795D01*
X207263046Y-99149534D01*
X207239672Y-99203965D01*
X207209614Y-99254403D01*
X207173458Y-99300300D01*
X207131794Y-99341111D01*
X207085209Y-99376289D01*
X207034292Y-99405286D01*
X206979631Y-99427556D01*
X206921815Y-99442553D01*
X206898505Y-99445763D01*
X206864687Y-99447716D01*
X206827859Y-99447541D01*
X206790725Y-99445337D01*
X206755990Y-99441207D01*
X206726359Y-99435250D01*
X206722403Y-99434198D01*
X206668138Y-99415647D01*
X206617509Y-99390207D01*
X206569840Y-99357481D01*
X206524453Y-99317072D01*
X206512829Y-99305078D01*
X206474140Y-99258059D01*
X206442947Y-99207680D01*
X206419333Y-99154159D01*
X206403379Y-99097712D01*
X206395169Y-99038557D01*
X206394931Y-99000401D01*
X206538143Y-99000401D01*
X206541261Y-99047700D01*
X206551288Y-99093258D01*
X206568161Y-99135611D01*
X206569089Y-99137439D01*
X206595134Y-99179844D01*
X206627020Y-99217262D01*
X206663924Y-99248983D01*
X206705024Y-99274296D01*
X206749497Y-99292490D01*
X206768262Y-99297019D01*
X206795383Y-99300904D01*
X206825442Y-99303146D01*
X206855712Y-99303632D01*
X206883468Y-99302250D01*
X206905982Y-99298891D01*
X206934284Y-99291120D01*
X206978380Y-99273022D01*
X207018051Y-99248361D01*
X207054232Y-99216620D01*
X207077177Y-99190673D01*
X207105004Y-99149454D01*
X207125348Y-99105528D01*
X207138103Y-99059551D01*
X207143160Y-99012183D01*
X207140413Y-98964078D01*
X207129754Y-98915896D01*
X207111076Y-98868292D01*
X207110475Y-98867047D01*
X207101606Y-98849662D01*
X207092986Y-98835384D01*
X207083017Y-98822062D01*
X207070102Y-98807550D01*
X207052643Y-98789698D01*
X207040024Y-98777304D01*
X207023718Y-98762376D01*
X207009344Y-98751078D01*
X206994816Y-98741823D01*
X206978048Y-98733028D01*
X206956572Y-98723080D01*
X206929203Y-98712770D01*
X206902632Y-98706232D01*
X206873911Y-98702799D01*
X206840094Y-98701802D01*
X206815630Y-98702281D01*
X206785486Y-98704944D01*
X206758542Y-98710519D01*
X206731951Y-98719652D01*
X206702867Y-98732989D01*
X206692858Y-98738327D01*
X206658941Y-98761163D01*
X206626919Y-98789672D01*
X206598357Y-98822138D01*
X206574817Y-98856845D01*
X206557863Y-98892078D01*
X206552881Y-98906441D01*
X206541996Y-98952827D01*
X206538143Y-99000401D01*
X206394931Y-99000401D01*
X206394785Y-98976911D01*
X206397527Y-98945959D01*
X206408638Y-98887214D01*
X206427324Y-98831680D01*
X206453607Y-98779313D01*
X206487506Y-98730066D01*
X206529043Y-98683895D01*
X206553894Y-98661134D01*
X206602063Y-98625332D01*
X206653758Y-98596756D01*
X206708425Y-98575602D01*
X206765510Y-98562063D01*
X206824461Y-98556335D01*
X206884722Y-98558614D01*
X206924721Y-98564066D01*
X206961701Y-98572339D01*
X206996935Y-98584135D01*
X207033641Y-98600355D01*
X207083051Y-98628445D01*
X207129845Y-98663597D01*
X207171723Y-98704208D01*
X207208046Y-98749480D01*
X207238179Y-98798615D01*
X207261482Y-98850816D01*
X207277319Y-98905286D01*
X207278863Y-98912958D01*
X207281660Y-98931389D01*
X207283426Y-98952093D01*
X207284295Y-98977048D01*
X207284405Y-99008236D01*
X207284365Y-99012183D01*
X207284206Y-99027982D01*
X207283606Y-99050716D01*
G37*
G36*
X206157653Y-98117960D02*
G01*
X206176266Y-98130567D01*
X206190479Y-98148811D01*
X206191160Y-98150214D01*
X206192079Y-98152877D01*
X206192910Y-98156622D01*
X206193659Y-98161844D01*
X206194331Y-98168942D01*
X206194931Y-98178313D01*
X206195464Y-98190355D01*
X206195937Y-98205466D01*
X206196353Y-98224042D01*
X206196719Y-98246481D01*
X206197040Y-98273181D01*
X206197321Y-98304540D01*
X206197567Y-98340954D01*
X206197784Y-98382822D01*
X206197977Y-98430541D01*
X206198151Y-98484508D01*
X206198311Y-98545121D01*
X206198463Y-98612777D01*
X206198613Y-98687875D01*
X206198765Y-98770811D01*
X206198822Y-98805081D01*
X206198941Y-98898132D01*
X206198990Y-98983024D01*
X206198969Y-99059811D01*
X206198877Y-99128552D01*
X206198714Y-99189301D01*
X206198480Y-99242116D01*
X206198175Y-99287053D01*
X206197798Y-99324168D01*
X206197349Y-99353517D01*
X206196828Y-99375157D01*
X206196234Y-99389144D01*
X206195568Y-99395535D01*
X206194880Y-99397890D01*
X206185902Y-99416443D01*
X206172402Y-99432452D01*
X206156705Y-99443073D01*
X206144458Y-99447113D01*
X206121741Y-99448678D01*
X206099851Y-99443375D01*
X206080671Y-99431797D01*
X206066082Y-99414537D01*
X206055610Y-99396667D01*
X206055610Y-98163103D01*
X206064831Y-98146696D01*
X206066059Y-98144645D01*
X206077499Y-98130984D01*
X206091775Y-98119902D01*
X206093119Y-98119136D01*
X206114308Y-98111725D01*
X206136410Y-98111506D01*
X206157653Y-98117960D01*
G37*
G36*
X205892477Y-99044403D02*
G01*
X205883816Y-99103482D01*
X205867987Y-99158705D01*
X205844786Y-99210555D01*
X205814008Y-99259519D01*
X205775451Y-99306083D01*
X205743054Y-99337778D01*
X205695296Y-99375017D01*
X205643842Y-99404900D01*
X205588711Y-99427416D01*
X205529922Y-99442553D01*
X205506611Y-99445763D01*
X205472794Y-99447716D01*
X205435965Y-99447541D01*
X205398831Y-99445337D01*
X205364096Y-99441207D01*
X205334465Y-99435250D01*
X205298325Y-99424015D01*
X205245654Y-99400927D01*
X205196192Y-99371174D01*
X205150722Y-99335483D01*
X205110026Y-99294579D01*
X205074887Y-99249188D01*
X205046089Y-99200034D01*
X205024412Y-99147844D01*
X205019670Y-99132588D01*
X205007763Y-99078037D01*
X205002456Y-99021023D01*
X205002899Y-99001111D01*
X205146240Y-99001111D01*
X205149588Y-99050868D01*
X205160750Y-99098128D01*
X205179628Y-99142636D01*
X205206120Y-99184136D01*
X205240126Y-99222374D01*
X205270857Y-99248620D01*
X205310026Y-99273016D01*
X205353486Y-99290921D01*
X205366216Y-99294466D01*
X205394644Y-99299696D01*
X205426442Y-99302892D01*
X205458814Y-99303916D01*
X205488962Y-99302629D01*
X205514089Y-99298891D01*
X205550358Y-99288266D01*
X205595486Y-99267818D01*
X205636158Y-99240509D01*
X205672048Y-99206566D01*
X205702832Y-99166219D01*
X205725711Y-99124485D01*
X205741090Y-99080991D01*
X205749003Y-99035084D01*
X205749711Y-98985756D01*
X205744636Y-98941350D01*
X205733733Y-98899957D01*
X205716471Y-98861768D01*
X205692238Y-98825441D01*
X205660422Y-98789630D01*
X205647398Y-98776762D01*
X205631385Y-98762051D01*
X205617231Y-98750918D01*
X205602849Y-98741773D01*
X205586154Y-98733028D01*
X205564678Y-98723080D01*
X205537309Y-98712770D01*
X205510738Y-98706232D01*
X205482018Y-98702799D01*
X205448200Y-98701802D01*
X205423591Y-98702286D01*
X205393688Y-98704940D01*
X205366794Y-98710503D01*
X205339962Y-98719644D01*
X205310246Y-98733028D01*
X205298536Y-98739011D01*
X205283642Y-98747855D01*
X205269641Y-98758180D01*
X205254449Y-98771575D01*
X205235979Y-98789630D01*
X205204893Y-98824506D01*
X205180623Y-98860591D01*
X205163273Y-98898543D01*
X205152205Y-98939765D01*
X205146779Y-98985662D01*
X205146240Y-99001111D01*
X205002899Y-99001111D01*
X205003738Y-98963406D01*
X205011598Y-98907048D01*
X205026026Y-98853810D01*
X205041282Y-98816400D01*
X205068108Y-98767892D01*
X205101251Y-98722470D01*
X205139795Y-98680985D01*
X205182824Y-98644289D01*
X205229423Y-98613233D01*
X205278676Y-98588669D01*
X205329668Y-98571448D01*
X205376640Y-98561749D01*
X205437243Y-98556255D01*
X205496819Y-98558682D01*
X205554841Y-98568890D01*
X205610781Y-98586741D01*
X205664109Y-98612095D01*
X205714297Y-98644813D01*
X205760818Y-98684758D01*
X205773687Y-98697796D01*
X205812733Y-98744419D01*
X205844202Y-98794259D01*
X205868066Y-98847251D01*
X205884300Y-98903328D01*
X205892878Y-98962423D01*
X205893215Y-98985756D01*
X205893774Y-99024469D01*
X205892477Y-99044403D01*
G37*
G36*
X212765640Y-98930178D02*
G01*
X212819945Y-98930198D01*
X212866956Y-98930250D01*
X212907237Y-98930347D01*
X212941351Y-98930500D01*
X212969862Y-98930723D01*
X212993334Y-98931029D01*
X213012330Y-98931430D01*
X213027413Y-98931940D01*
X213039147Y-98932571D01*
X213048096Y-98933336D01*
X213054824Y-98934249D01*
X213059893Y-98935321D01*
X213063867Y-98936566D01*
X213067310Y-98937997D01*
X213072617Y-98940787D01*
X213088928Y-98954446D01*
X213101531Y-98972701D01*
X213108365Y-98992800D01*
X213108988Y-98999527D01*
X213106084Y-99020072D01*
X213097183Y-99040011D01*
X213083628Y-99056909D01*
X213066757Y-99068332D01*
X213065306Y-99068734D01*
X213055938Y-99069794D01*
X213039379Y-99070747D01*
X213016400Y-99071595D01*
X212987772Y-99072337D01*
X212954266Y-99072972D01*
X212916651Y-99073501D01*
X212875700Y-99073922D01*
X212832183Y-99074237D01*
X212786871Y-99074445D01*
X212740534Y-99074545D01*
X212693943Y-99074538D01*
X212647870Y-99074423D01*
X212603085Y-99074201D01*
X212560358Y-99073870D01*
X212520461Y-99073430D01*
X212484165Y-99072882D01*
X212452239Y-99072226D01*
X212425456Y-99071460D01*
X212404585Y-99070585D01*
X212390398Y-99069601D01*
X212383665Y-99068508D01*
X212377225Y-99065277D01*
X212361054Y-99051782D01*
X212348766Y-99033627D01*
X212341688Y-99013178D01*
X212341148Y-98992800D01*
X212342470Y-98986742D01*
X212351251Y-98966907D01*
X212365182Y-98949742D01*
X212382203Y-98937997D01*
X212384487Y-98937014D01*
X212388225Y-98935710D01*
X212392873Y-98934582D01*
X212398995Y-98933619D01*
X212407153Y-98932806D01*
X212417912Y-98932133D01*
X212431836Y-98931584D01*
X212449487Y-98931149D01*
X212471429Y-98930813D01*
X212498226Y-98930565D01*
X212530441Y-98930390D01*
X212568639Y-98930276D01*
X212613381Y-98930211D01*
X212665233Y-98930182D01*
X212724757Y-98930175D01*
X212765640Y-98930178D01*
G37*
%TD*%
M02*
