%TF.GenerationSoftware,KiCad,Pcbnew,(6.0.0)*%
%TF.CreationDate,2022-07-07T13:52:49+12:00*%
%TF.ProjectId,SERVO_POWER_INJECTOR,53455256-4f5f-4504-9f57-45525f494e4a,0A*%
%TF.SameCoordinates,Original*%
%TF.FileFunction,Copper,L3,Inr*%
%TF.FilePolarity,Positive*%
%FSLAX46Y46*%
G04 Gerber Fmt 4.6, Leading zero omitted, Abs format (unit mm)*
G04 Created by KiCad (PCBNEW (6.0.0)) date 2022-07-07 13:52:49*
%MOMM*%
%LPD*%
G01*
G04 APERTURE LIST*
G04 Aperture macros list*
%AMRoundRect*
0 Rectangle with rounded corners*
0 $1 Rounding radius*
0 $2 $3 $4 $5 $6 $7 $8 $9 X,Y pos of 4 corners*
0 Add a 4 corners polygon primitive as box body*
4,1,4,$2,$3,$4,$5,$6,$7,$8,$9,$2,$3,0*
0 Add four circle primitives for the rounded corners*
1,1,$1+$1,$2,$3*
1,1,$1+$1,$4,$5*
1,1,$1+$1,$6,$7*
1,1,$1+$1,$8,$9*
0 Add four rect primitives between the rounded corners*
20,1,$1+$1,$2,$3,$4,$5,0*
20,1,$1+$1,$4,$5,$6,$7,0*
20,1,$1+$1,$6,$7,$8,$9,0*
20,1,$1+$1,$8,$9,$2,$3,0*%
G04 Aperture macros list end*
%TA.AperFunction,ComponentPad*%
%ADD10RoundRect,0.500000X-2.200000X-0.350000X2.200000X-0.350000X2.200000X0.350000X-2.200000X0.350000X0*%
%TD*%
%TA.AperFunction,ComponentPad*%
%ADD11RoundRect,0.425000X-2.275000X-0.425000X2.275000X-0.425000X2.275000X0.425000X-2.275000X0.425000X0*%
%TD*%
%TA.AperFunction,ViaPad*%
%ADD12C,0.550000*%
%TD*%
G04 APERTURE END LIST*
D10*
%TO.N,/S1*%
%TO.C,J4*%
X219580000Y-97450000D03*
%TO.N,+5V*%
X219580000Y-99990000D03*
%TO.N,GND*%
X219580000Y-102530000D03*
%TD*%
%TO.N,/S1_IN*%
%TO.C,J1*%
X198200000Y-96190000D03*
%TO.N,GND*%
X198200000Y-98730000D03*
X198200000Y-101270000D03*
D11*
%TO.N,VCC*%
X198200000Y-103810000D03*
%TD*%
D12*
%TO.N,GND*%
X218059000Y-104495600D03*
X208600000Y-95100000D03*
X201955400Y-101092000D03*
X216662000Y-101320600D03*
X195402200Y-97459800D03*
X208600000Y-104100000D03*
X205384400Y-96951800D03*
X222377000Y-98704400D03*
X215200000Y-104500000D03*
X195402200Y-99999800D03*
X215200000Y-95500000D03*
X206425800Y-96926400D03*
X195402200Y-102514400D03*
X205333600Y-103479600D03*
X201041000Y-100025200D03*
X216662000Y-96164400D03*
X201066400Y-95021400D03*
X220472000Y-95529400D03*
X208600000Y-95900000D03*
X216636600Y-103809800D03*
X208600000Y-104900000D03*
X202000000Y-104600000D03*
X218059000Y-95504000D03*
X222377000Y-96189800D03*
X216687400Y-98679000D03*
X206451200Y-103479600D03*
X220497400Y-104470200D03*
X202000000Y-95500000D03*
X195402200Y-95021400D03*
X195376800Y-105003600D03*
X222351600Y-101269800D03*
X222326200Y-104927400D03*
X215900000Y-103050000D03*
X201066400Y-97459800D03*
X201955400Y-98856800D03*
X222351600Y-103809800D03*
X222351600Y-95021400D03*
%TO.N,/S1_IN*%
X215900000Y-96800000D03*
%TD*%
%TA.AperFunction,Conductor*%
%TO.N,GND*%
G36*
X222672719Y-94717281D02*
G01*
X222690000Y-94759000D01*
X222690000Y-105241000D01*
X222672719Y-105282719D01*
X222631000Y-105300000D01*
X195149000Y-105300000D01*
X195107281Y-105282719D01*
X195090000Y-105241000D01*
X195090000Y-103321837D01*
X195299500Y-103321837D01*
X195299501Y-104298162D01*
X195302291Y-104333627D01*
X195303133Y-104336524D01*
X195303133Y-104336526D01*
X195303134Y-104336527D01*
X195346382Y-104485390D01*
X195426830Y-104621420D01*
X195538580Y-104733170D01*
X195674610Y-104813618D01*
X195678173Y-104814653D01*
X195678175Y-104814654D01*
X195731604Y-104830176D01*
X195826373Y-104857709D01*
X195829380Y-104857946D01*
X195829382Y-104857946D01*
X195860691Y-104860410D01*
X195860696Y-104860410D01*
X195861837Y-104860500D01*
X198197965Y-104860500D01*
X200538162Y-104860499D01*
X200539300Y-104860409D01*
X200539312Y-104860409D01*
X200570618Y-104857946D01*
X200570621Y-104857945D01*
X200573627Y-104857709D01*
X200576524Y-104856867D01*
X200576526Y-104856867D01*
X200721825Y-104814654D01*
X200721827Y-104814653D01*
X200725390Y-104813618D01*
X200861420Y-104733170D01*
X200973170Y-104621420D01*
X201053618Y-104485390D01*
X201097709Y-104333627D01*
X201100500Y-104298163D01*
X201100499Y-103321838D01*
X201097709Y-103286373D01*
X201096867Y-103283474D01*
X201054654Y-103138175D01*
X201054653Y-103138173D01*
X201053618Y-103134610D01*
X200973170Y-102998580D01*
X200861420Y-102886830D01*
X200725390Y-102806382D01*
X200721827Y-102805347D01*
X200721825Y-102805346D01*
X200668396Y-102789824D01*
X200573627Y-102762291D01*
X200570620Y-102762054D01*
X200570618Y-102762054D01*
X200539309Y-102759590D01*
X200539304Y-102759590D01*
X200538163Y-102759500D01*
X198202035Y-102759500D01*
X195861838Y-102759501D01*
X195860700Y-102759591D01*
X195860688Y-102759591D01*
X195829382Y-102762054D01*
X195829379Y-102762055D01*
X195826373Y-102762291D01*
X195823476Y-102763133D01*
X195823474Y-102763133D01*
X195678175Y-102805346D01*
X195678173Y-102805347D01*
X195674610Y-102806382D01*
X195538580Y-102886830D01*
X195426830Y-102998580D01*
X195346382Y-103134610D01*
X195302291Y-103286373D01*
X195299500Y-103321837D01*
X195090000Y-103321837D01*
X195090000Y-99584007D01*
X216679500Y-99584007D01*
X216679501Y-100395992D01*
X216679623Y-100397316D01*
X216679623Y-100397324D01*
X216683255Y-100436854D01*
X216686171Y-100468594D01*
X216736873Y-100630383D01*
X216824703Y-100775408D01*
X216944592Y-100895297D01*
X217089617Y-100983127D01*
X217251406Y-101033829D01*
X217324007Y-101040500D01*
X217325364Y-101040500D01*
X219592537Y-101040499D01*
X221835992Y-101040499D01*
X221837316Y-101040377D01*
X221837324Y-101040377D01*
X221876854Y-101036745D01*
X221908594Y-101033829D01*
X222070383Y-100983127D01*
X222215408Y-100895297D01*
X222335297Y-100775408D01*
X222423127Y-100630383D01*
X222473829Y-100468594D01*
X222480500Y-100395993D01*
X222480499Y-99584008D01*
X222480375Y-99582650D01*
X222474115Y-99514522D01*
X222473829Y-99511406D01*
X222423127Y-99349617D01*
X222335297Y-99204592D01*
X222215408Y-99084703D01*
X222070383Y-98996873D01*
X221908594Y-98946171D01*
X221835993Y-98939500D01*
X221834636Y-98939500D01*
X219567463Y-98939501D01*
X217324008Y-98939501D01*
X217322684Y-98939623D01*
X217322676Y-98939623D01*
X217283146Y-98943255D01*
X217251406Y-98946171D01*
X217089617Y-98996873D01*
X216944592Y-99084703D01*
X216824703Y-99204592D01*
X216736873Y-99349617D01*
X216686171Y-99511406D01*
X216679500Y-99584007D01*
X195090000Y-99584007D01*
X195090000Y-95784007D01*
X195299500Y-95784007D01*
X195299501Y-96595992D01*
X195299623Y-96597316D01*
X195299623Y-96597324D01*
X195303255Y-96636854D01*
X195306171Y-96668594D01*
X195356873Y-96830383D01*
X195444703Y-96975408D01*
X195564592Y-97095297D01*
X195709617Y-97183127D01*
X195871406Y-97233829D01*
X195944007Y-97240500D01*
X195945364Y-97240500D01*
X198212537Y-97240499D01*
X200455992Y-97240499D01*
X200457316Y-97240377D01*
X200457324Y-97240377D01*
X200496854Y-97236745D01*
X200528594Y-97233829D01*
X200690383Y-97183127D01*
X200835408Y-97095297D01*
X200955297Y-96975408D01*
X201043127Y-96830383D01*
X201054488Y-96794131D01*
X215419646Y-96794131D01*
X215420191Y-96798299D01*
X215420191Y-96798301D01*
X215424386Y-96830383D01*
X215437306Y-96929186D01*
X215492162Y-97053856D01*
X215494864Y-97057071D01*
X215494865Y-97057072D01*
X215526997Y-97095297D01*
X215579804Y-97158119D01*
X215583303Y-97160448D01*
X215583304Y-97160449D01*
X215614607Y-97181286D01*
X215693187Y-97233593D01*
X215697193Y-97234845D01*
X215697196Y-97234846D01*
X215819187Y-97272958D01*
X215819188Y-97272958D01*
X215823195Y-97274210D01*
X215827395Y-97274287D01*
X215955176Y-97276629D01*
X215959377Y-97276706D01*
X216090786Y-97240880D01*
X216206858Y-97169612D01*
X216272459Y-97097137D01*
X216295441Y-97071747D01*
X216295442Y-97071745D01*
X216298261Y-97068631D01*
X216310191Y-97044007D01*
X216679500Y-97044007D01*
X216679501Y-97855992D01*
X216679623Y-97857316D01*
X216679623Y-97857324D01*
X216683255Y-97896854D01*
X216686171Y-97928594D01*
X216736873Y-98090383D01*
X216824703Y-98235408D01*
X216944592Y-98355297D01*
X217089617Y-98443127D01*
X217251406Y-98493829D01*
X217324007Y-98500500D01*
X217325364Y-98500500D01*
X219592537Y-98500499D01*
X221835992Y-98500499D01*
X221837316Y-98500377D01*
X221837324Y-98500377D01*
X221876854Y-98496745D01*
X221908594Y-98493829D01*
X222070383Y-98443127D01*
X222215408Y-98355297D01*
X222335297Y-98235408D01*
X222423127Y-98090383D01*
X222473829Y-97928594D01*
X222480500Y-97855993D01*
X222480499Y-97044008D01*
X222480375Y-97042650D01*
X222476745Y-97003146D01*
X222473829Y-96971406D01*
X222423127Y-96809617D01*
X222335297Y-96664592D01*
X222215408Y-96544703D01*
X222070383Y-96456873D01*
X221908594Y-96406171D01*
X221835993Y-96399500D01*
X221834636Y-96399500D01*
X219567463Y-96399501D01*
X217324008Y-96399501D01*
X217322684Y-96399623D01*
X217322676Y-96399623D01*
X217283146Y-96403255D01*
X217251406Y-96406171D01*
X217089617Y-96456873D01*
X216944592Y-96544703D01*
X216824703Y-96664592D01*
X216736873Y-96809617D01*
X216686171Y-96971406D01*
X216679500Y-97044007D01*
X216310191Y-97044007D01*
X216357649Y-96946054D01*
X216380247Y-96811737D01*
X216380390Y-96800000D01*
X216361081Y-96665171D01*
X216304706Y-96541180D01*
X216215796Y-96437996D01*
X216212272Y-96435712D01*
X216212270Y-96435710D01*
X216105031Y-96366201D01*
X216101501Y-96363913D01*
X216011272Y-96336929D01*
X215975036Y-96326092D01*
X215975035Y-96326092D01*
X215971006Y-96324887D01*
X215966803Y-96324861D01*
X215966801Y-96324861D01*
X215905871Y-96324489D01*
X215834804Y-96324055D01*
X215703842Y-96361484D01*
X215700287Y-96363727D01*
X215700285Y-96363728D01*
X215592206Y-96431921D01*
X215592205Y-96431922D01*
X215588650Y-96434165D01*
X215585867Y-96437316D01*
X215585866Y-96437317D01*
X215582455Y-96441179D01*
X215498487Y-96536255D01*
X215496700Y-96540062D01*
X215496699Y-96540063D01*
X215494521Y-96544703D01*
X215440601Y-96659548D01*
X215439955Y-96663699D01*
X215439954Y-96663701D01*
X215427456Y-96743973D01*
X215419646Y-96794131D01*
X201054488Y-96794131D01*
X201093829Y-96668594D01*
X201100500Y-96595993D01*
X201100499Y-95784008D01*
X201100375Y-95782650D01*
X201094115Y-95714522D01*
X201093829Y-95711406D01*
X201043127Y-95549617D01*
X200955297Y-95404592D01*
X200835408Y-95284703D01*
X200690383Y-95196873D01*
X200528594Y-95146171D01*
X200455993Y-95139500D01*
X200454636Y-95139500D01*
X198187463Y-95139501D01*
X195944008Y-95139501D01*
X195942684Y-95139623D01*
X195942676Y-95139623D01*
X195903146Y-95143255D01*
X195871406Y-95146171D01*
X195709617Y-95196873D01*
X195564592Y-95284703D01*
X195444703Y-95404592D01*
X195356873Y-95549617D01*
X195306171Y-95711406D01*
X195299500Y-95784007D01*
X195090000Y-95784007D01*
X195090000Y-94759000D01*
X195107281Y-94717281D01*
X195149000Y-94700000D01*
X222631000Y-94700000D01*
X222672719Y-94717281D01*
G37*
%TD.AperFunction*%
%TD*%
M02*
